<?xml version="1.0" encoding="utf-8"?>
<!-- Generator: Adobe Illustrator 15.0.0, SVG Export Plug-In . SVG Version: 6.00 Build 0)  -->
<!DOCTYPE svg PUBLIC "-//W3C//DTD SVG 1.1//EN" "http://www.w3.org/Graphics/SVG/1.1/DTD/svg11.dtd">
<svg version="1.1" id="Layer_1" xmlns="http://www.w3.org/2000/svg" xmlns:xlink="http://www.w3.org/1999/xlink" x="0px" y="0px"
	 width="431px" height="151px" viewBox="0 0 431 151" enable-background="new 0 0 431 151" xml:space="preserve">
<g>
	<defs>
		<rect id="SVGID_1_" x="-45" y="-40" width="521" height="231"/>
	</defs>
	<clipPath id="SVGID_2_">
		<use xlink:href="#SVGID_1_"  overflow="visible"/>
	</clipPath>
	<path clip-path="url(#SVGID_2_)" fill="#676767" d="M136.907,96.532c0.966-4.559-0.332-12.334-0.332-12.334l-1.664,1.687
		c-0.691,0.756-1.488,1.755-2.296,2.881l0.123,0.902c1.424-2.071,2.611-3.422,3.43-4.175c0.311,1.961,0.451,5.285,0.372,7.86
		c-0.034,1.062-0.253,2.279-0.455,3.375L136.907,96.532"/>
	<path clip-path="url(#SVGID_2_)" fill="#676767" d="M124.856,94.57c-0.834,1.939-1.691,3.977-1.987,6.505
		c-0.276,2.165,0.137,4.106,0.483,5.936c0.303,1.623,0.499,2.709,0.265,4.206l0.836-0.401c0-1.165-0.148-2.637-0.38-3.863
		c-0.254-1.35-0.608-2.818-0.608-4.316c0-0.492,0.028-0.997,0.095-1.521c0.228-1.946,0.582-2.962,1.184-4.512L124.856,94.57"/>
	<path clip-path="url(#SVGID_2_)" fill="#676767" d="M142.809,95.204c-2.665,0.064-8.168,1.153-12.075,4.453
		c-4.036,3.32-5.766,9.346-6.192,11.435l-0.041,0.969c1.793-1.097,3.192-1.592,4.57-2.117c1.592-0.607,3.035-1.177,4.861-2.523
		c4.502-3.504,7.651-9.006,9.1-11.863l0.185-0.361L142.809,95.204 M130.737,100.464c3.819-3.402,8.648-4.261,11.367-4.599
		c-1.633,2.878-3.907,7.295-8.491,10.899c-1.767,1.309-3.167,1.868-4.726,2.463c-1.265,0.483-2.221,0.857-3.814,1.778
		C125.641,108.76,127.045,103.687,130.737,100.464z"/>
	<path clip-path="url(#SVGID_2_)" fill="#676767" d="M72.638,141.827c-1.269,1.101-3.032,4.912-3.442,5.705
		c0.099-1.068-0.074-1.629,0.242-2.406c-0.433,0.203-1.42,0.269-2.433,1.297c0.341-1.129,1.944-3.092,3.98-4.791l-0.164-0.209
		c0.079-0.037-1.021,0.535-2.4,2.035c-1.089,1.189-1.89,2-2.192,3.695c0,0-0.041,1.021,0.484,0.237
		c0.544-0.815,1.5-1.192,2.09-1.468c-0.121,0.729-0.061,2.013-0.061,2.013s0.073,1.455,0.483,0.528
		c1.048-2.373,2.551-5.232,4.285-6.803L72.638,141.827"/>
	<polyline clip-path="url(#SVGID_2_)" fill="#676767" points="83.644,140.784 83.641,140.784 83.642,140.784 83.644,140.784 	"/>
	<path clip-path="url(#SVGID_2_)" fill="#676767" d="M74.759,142.298c1.836,1.82,2.969,4.434,3.476,6.757l0.148,0.685
		c0,0,0.594-2.722,0.651-3.558c0.435,0.405,2.603,2.306,2.603,2.306c-0.171-1.224-0.702-2.783-1.719-4.379
		c-0.874-1.371-2.624-2.373-3.297-2.836l-0.189,0.465c0.525,0.291,1.764,0.809,2.805,2.264c0.578,0.808,1.309,2.093,1.44,3.045
		c-0.389-0.689-1.627-1.422-2.092-1.66c0.021,0.393-0.148,1.721-0.261,2.537c-0.416-1.711-0.552-2.01-1.398-3.557
		c-0.688-1.148-0.457-0.81-1.625-2.207L74.759,142.298 M77.27,140.118c1.033,0.371,8.14,2.545,8.238,2.885
		c0.097,0.34-1.032,0.513-1.516,0.341c-1.376-1.08-4.202-2.272-6.839-2.899l-0.054,0.317c2.617,0.62,5.065,2.022,6.397,3.075
		c0.054,0.043,0.299,0.205,0.502,0.207c0.684,0.013,1.411-0.516,1.817-0.539c0.407-0.021,0.609-0.953,0-0.993
		c-0.609-0.044-7.302-2.526-8.536-2.774L77.27,140.118z M70.106,140.596c-2.619,0.687-5.444,2.022-6.937,2.957
		c-0.478,0.185-1.199-0.164-1.111-0.507c0.089-0.342,6.628-2.284,7.902-2.762v-0.375c-1.478,0.358-7.711,2.59-8.319,2.646
		c-0.609,0.058-0.259,1.017,0,1.129c0.372,0.162,0.851,0.528,1.533,0.505c0.204-0.009,0.576-0.207,0.63-0.253
		c1.307-1.082,3.913-2.388,6.515-3.065L70.106,140.596z"/>
	<path clip-path="url(#SVGID_2_)" fill="#676767" d="M73.985,138.86c0.704-0.578,2.421-0.27,2.764,0.385
		c0.251,0.473,0.185,0.813-0.073,1.488c-0.259,0.674-1.164,1.127-1.725,1.098c-0.712-0.037-1.101-0.209-1.364-0.389l-0.323,0.256
		c0.229,0.373,0.992,0.735,1.533,0.723c1.213-0.028,2.086-0.573,2.435-1.521c0.201-0.584,0.31-1.296,0.032-1.854
		c-0.206-0.416-0.623-0.723-0.991-0.846c-0.421-0.172-1.211-0.248-1.754-0.106c-0.269,0.075-0.518,0.17-0.865,0.409L73.985,138.86
		 M73.558,139.772c0,0,0-0.003,0.001-0.003L73.558,139.772z"/>
	<path clip-path="url(#SVGID_2_)" fill="#676767" d="M69.733,138.843c-0.224,0.564-0.077,1.507,0.365,2.162
		c0.358,0.527,0.837,0.854,1.399,0.922c0.846,0.091,2.142,0.4,2.777-1.041c0.485-1.564-0.031-2.717-1.256-2.95
		C71.647,137.675,70.073,137.985,69.733,138.843 M72.858,138.3c1.164,0.195,0.973,1.546,0.796,2.316
		c-0.206,0.897-0.888,0.846-2.047,0.727c-0.299-0.043-0.784-0.258-1.063-0.67c-0.253-0.379-0.481-0.76-0.481-1.184
		c0-0.172,0.026-0.338,0.077-0.49C70.561,138.196,71.805,137.854,72.858,138.3z"/>
	<path clip-path="url(#SVGID_2_)" fill="#676767" d="M133.578,102.159c-2.679,1.134-5.083,3.584-7.073,6.573
		c-0.066,0.102-0.054,0.34,0.024,0.25c1.842-2.134,4.763-5.341,7.271-6.572C134.866,101.888,134.322,101.842,133.578,102.159"/>
	<path clip-path="url(#SVGID_2_)" fill="#676767" d="M140.331,67.288c-1.13-4.495-3.93-7.402-5.288-9.065l-0.29-0.415l-0.087,0.495
		l-0.507,1.776c-0.812,2.776-1.797,5.751-1.688,9.4l0.765,0.377c-0.431-2.845,1.167-8.156,1.88-10.597
		c1.768,2.327,3.83,4.766,4.524,8.467L140.331,67.288"/>
	<path clip-path="url(#SVGID_2_)" fill="#676767" d="M136.207,73.505c-1.384-2.974-7.599-7.632-7.599-7.632s0.215,6.415,0.742,8.921
		l0.804,0.354c-0.55-2.59-0.879-7.515-0.888-7.897c0.347,0.275,5.132,4.038,6.47,6.914L136.207,73.505 M135.553,85.295
		c-0.534-1.342-1.447-2.247-2.37-3.457l-0.073,0.838c1.028,1.344,1.772,2.235,2.134,3.108L135.553,85.295z"/>
	<path clip-path="url(#SVGID_2_)" fill="#676767" d="M145.174,63.218c-2.165,1.111-6.827,4.497-8.96,9.36
		c-2.106,4.906-1.137,10.823-0.57,12.886l0.708-0.711l0.245,1.575c1.102-1.846,2.044-2.738,3.028-3.857
		c1.119-1.271,2.174-2.469,3.148-4.482c2.417-4.948,2.619-10.67,2.758-14.543l0.013-0.416L145.174,63.218 M136.093,84.915
		c-0.258-1.325-0.452-3.016-0.452-5.34c0-2.283,0.426-4.718,1.239-6.803c1.081-2.77,4.8-6.603,7.996-8.687
		c-0.156,3.814-0.353,8.749-2.95,13.689c-1.008,1.924-2.051,3.131-3.147,4.374c-0.906,1.029-1.246,1.4-2.249,2.989
		C136.497,84.989,136.128,85.099,136.093,84.915z"/>
	<path clip-path="url(#SVGID_2_)" fill="#676767" d="M135.998,84.931c-0.011,0.119,0.214-0.344,0.333-0.333
		c0.118,0.011,0.189,0.63,0.199,0.511c0.439-5.261,1.465-6.785,3.349-10.374c0.055-0.104,0.017-0.366-0.079-0.295
		C139.079,74.969,136.445,79.575,135.998,84.931"/>
	<path clip-path="url(#SVGID_2_)" fill="#676767" d="M134.076,93.415c-0.542,1.424-1.153,2.486-1.153,2.486
		c-0.04,0.11,0.006,0.881,0.045,0.767l1.174-2.793C134.277,93.46,134.616,91.991,134.076,93.415"/>
	<path clip-path="url(#SVGID_2_)" fill="#676767" d="M131.523,72.74c1.082,1.212,2.879,5.041,3.49,7.479
		c0.029,0.117,0.143-0.659,0.106-0.771c-0.852-2.65-2.14-5.8-3.452-6.808C131.373,72.416,131.348,72.544,131.523,72.74"/>
	<path clip-path="url(#SVGID_2_)" fill="#676767" d="M136.528,72.309c-0.007-2.772-0.349-5.273-0.649-6.414
		c0.016-0.347,0.112-0.17,0.142-0.063c0.762,2.758,0.671,3.656,0.677,6.323L136.528,72.309"/>
	<path clip-path="url(#SVGID_2_)" fill="#676767" d="M126.365,105.72c0.716-2.192,0.542-3.462,0.621-6.243
		c0.429-0.043,1.067,2.393,0.032,5.562L126.365,105.72"/>
	<path clip-path="url(#SVGID_2_)" fill="#676767" d="M121.093,120.488c2.999-3.816,3.824-10.17,3.824-10.17
		s-7.335,2.82-10.363,5.034l0.108,0.689c1.052-1.171,9.102-4.402,9.573-4.578c-0.534,2.108-1.511,5.76-3.936,8.917L121.093,120.488"
		/>
	<path clip-path="url(#SVGID_2_)" fill="#676767" d="M103.326,128.072c0.754-1.23,1.302-2.636,1.72-4.099
		c0.494-1.72,0.828-3.25,1.965-4.993c1.107-2.38,7.035-7.146,7.334-7.384c-0.011,0.443,0.082,5.636-1.572,9.409l0.651-0.062
		c1.558-2.889,1.447-6.331,1.473-8.606l0.101-2.049l-1.393,1.087c-2.403,1.887-4.956,3.878-7.108,7.045
		c-1.175,1.805-1.659,3.682-2.16,5.435c-0.464,1.629-0.868,2.98-1.799,4.268L103.326,128.072"/>
	<path clip-path="url(#SVGID_2_)" fill="#676767" d="M127.179,121.98c-2.187-1.07-7.688-2.785-12.861-1.589
		c-5.193,1.246-9.524,5.765-10.779,7.58h0.61l-0.474,0.947c2.137-0.22,3.264,0.004,4.752,0.125c1.686,0.136,3.278,0.27,5.477-0.158
		c5.41-1.022,10.117-4.283,13.304-6.485l0.343-0.236L127.179,121.98 M108.28,124.146c1.828-1.363,4.033-2.742,6.222-3.204
		c5.035-1.06,8.861,0.538,11.7,1.304c-3.149,2.156-7.034,5.08-12.546,5.953c-2.147,0.34-3.695,0.283-5.345,0.149
		c-1.368-0.112-2.689-0.211-4.147-0.246C104.995,127.144,106.156,125.728,108.28,124.146z"/>
	<path clip-path="url(#SVGID_2_)" fill="#676767" d="M106.477,126.562c-0.107,0.056-0.524,0.515-0.461,0.616
		c0.064,0.102,0.632-0.031,0.739-0.086c4.746-2.381,6.024-2.645,9.389-3.309c0.118-0.025,0.305-0.207,0.19-0.242
		C115.48,123.279,111.081,124.166,106.477,126.562"/>
	<path clip-path="url(#SVGID_2_)" fill="#676767" d="M111.385,116.732c-1.36,2.007-3.524,6.491-3.912,7.268
		c-0.054,0.109,0.778-0.258,0.813-0.371c0.439-1.45,2.371-5.396,3.547-6.909C112.061,116.428,111.533,116.514,111.385,116.732"/>
	<path clip-path="url(#SVGID_2_)" fill="#676767" d="M114.641,120.449c2.217-1.667,4.187-3.353,5.899-5.501
		c-1.543,2.652-2.935,3.884-5.367,5.511L114.641,120.449"/>
	<path clip-path="url(#SVGID_2_)" fill="#676767" d="M97.878,136.12c3.535-2.883,5.38-6.289,6.464-8.143l0.287-0.42l-0.494,0.095
		l-1.841,0.145c-2.885,0.211-5.562,0.268-9.061,1.56l-0.125,0.739c4.622-1.465,9.134-1.686,10.21-1.76
		c-1.202,1.883-3.138,5.114-6.349,7.464L97.878,136.12"/>
	<path clip-path="url(#SVGID_2_)" fill="#676767" d="M79.324,138.022c0.935-1.07,1.414-1.845,2.227-3.132
		c0.954-1.515,1.95-3.543,3.532-4.899c2.891-2.386,8.844-4.438,9.259-4.606c-0.134,0.419-2.247,7.032-4.606,8.831l0.695,0.191
		c2.304-2.336,3.64-6.032,4.303-8.212l0.67-1.936l-1.703,0.742c-2.835,1.14-6.19,2.092-9.142,4.528
		c-1.634,1.405-2.696,3.588-3.667,5.131c-0.903,1.43-1.658,2.522-3.029,4.08L79.324,138.022"/>
	<path clip-path="url(#SVGID_2_)" fill="#676767" d="M102.917,138.866c-2.031-1.519-6.314-4.478-11.616-4.777
		c-5.333-0.258-12.506,3.785-14.24,5.033l0.01,0.519l0.746-0.091c2.114,0.389,3.722,0.839,5.173,1.24
		c1.632,0.455,3.305,1.129,5.534,1.338c5.481,0.535,10.913-1.276,14.59-2.5l0.695-0.203L102.917,138.866 M84.455,136.03
		c2.139-0.802,4.588-1.463,6.821-1.306c4.898,0.343,7.811,2.455,10.901,4.498c-4.435,1.198-7.432,2.657-13.651,2.22
		c-2.167-0.152-3.874-0.886-5.467-1.339c-1.332-0.381-2.984-0.688-4.824-1.071C79.302,138.339,81.973,136.954,84.455,136.03z"/>
	<path clip-path="url(#SVGID_2_)" fill="#676767" d="M92.43,138.132c0.117,0.02,0.651,0.336,0.619,0.451
		c-0.03,0.117-0.613,0.154-0.732,0.135c-5.235-0.889-6.534-0.766-9.946-0.418c-0.119,0.009-0.351-0.107-0.253-0.174
		C82.858,137.622,87.324,137.184,92.43,138.132"/>
	<path clip-path="url(#SVGID_2_)" fill="#676767" d="M89.051,130.364c-1.25,1.854-4.747,4.643-5.332,5.271
		c-0.08,0.085,0.821-0.029,0.887-0.133c0.826-1.266,4.33-4.117,5.34-5.635C90.151,129.557,89.198,130.149,89.051,130.364"/>
	<path clip-path="url(#SVGID_2_)" fill="#676767" d="M92.658,134.442c2.186-1.705,3.645-2.367,6.166-3.459
		c0.7-0.388-0.616,0-1.123,0.164c-1.934,0.622-3.88,1.729-5.627,3.25L92.658,134.442"/>
	<path clip-path="url(#SVGID_2_)" fill="#676767" d="M11.534,96.46c-0.201-1.097-0.255-2.191-0.287-3.252
		c-0.08-2.577-0.087-5.754,0.224-7.715c0.545,0.498,1.236,1.188,2.647,2.704l-0.042-0.984c-0.822-0.741-1.092-1.049-1.347-1.328
		l-1.664-1.687c0,0-1.225,7.662-0.258,12.222L11.534,96.46"/>
	<path clip-path="url(#SVGID_2_)" fill="#676767" d="M21.502,92.415c-0.394-0.495,2.297,5.065,2.724,8.7
		c0.067,0.523,0.094,1.028,0.094,1.521c0,1.498-0.354,2.967-0.61,4.316c-0.229,1.227-0.425,2.816-0.425,3.981l0.737,0.283
		c-0.037-1.518,0.047-2.545,0.353-4.166c0.343-1.829,0.85-3.902,0.574-6.066c-0.434-3.703-3.344-9.808-3.344-9.808L21.502,92.415"/>
	<path clip-path="url(#SVGID_2_)" fill="#676767" d="M16.697,100.061c3.679,3.027,5.301,8.772,5.87,11.02
		c-1.593-0.922-2.549-1.297-3.816-1.779c-1.558-0.594-3.03-1.374-4.797-2.681c-4.681-3.487-6.993-7.942-8.492-10.829
		c1.894,0.102,5.176,0.704,8.123,2.067l0.068-0.715c-3.155-1.442-6.733-1.944-8.822-1.939l-0.408-0.009l0.185,0.361
		c1.449,2.857,4.597,8.359,9.101,11.863c1.825,1.347,3.269,1.916,4.858,2.523c1.38,0.525,2.706,0.918,4.5,2.016l0.031-0.867
		c-0.416-2.039-1.897-7.963-5.74-11.327L16.697,100.061"/>
	<path clip-path="url(#SVGID_2_)" fill="#676767" d="M14.061,102.159c2.678,1.134,5.085,3.584,7.072,6.573
		c0.067,0.102,0.056,0.34-0.023,0.25c-1.841-2.134-4.764-5.341-7.271-6.572C12.773,101.888,13.316,101.842,14.061,102.159"/>
	<path clip-path="url(#SVGID_2_)" fill="#676767" d="M8.078,67.547c1.077-3.832,2.93-6.169,4.518-8.36
		c1.441,4.715,2.231,9.187,1.922,10.732l0.771-0.583c0.108-3.647-0.997-6.481-1.809-9.257l-0.507-1.776l-0.087-0.495l-0.29,0.415
		c-1.359,1.663-3.913,4.69-5.213,8.916L8.078,67.547"/>
	<path clip-path="url(#SVGID_2_)" fill="#676767" d="M11.904,74.019c1.337-2.875,6.196-6.567,6.543-6.842
		c-0.011,0.382-0.083,4.56-0.398,7.03l0.755-0.265c0.468-2.415,0.228-8.069,0.228-8.069s-6.216,4.658-7.6,7.632L11.904,74.019
		 M12.477,86.016c0.193-0.467,0.514-1.024,1.29-2.009l-0.101-0.979c-0.846,0.981-1.235,1.548-1.581,2.414L12.477,86.016z"/>
	<path clip-path="url(#SVGID_2_)" fill="#676767" d="M2.094,63.029c0,0-0.845,7.634,2.771,14.959
		c0.991,2.006,2.107,3.102,3.225,4.373c0.986,1.119,1.906,1.851,3.007,3.695l0.19-1.304l0.709,0.711
		c0.566-2.062,1.392-7.921-0.57-12.886C9.009,66.462,2.094,63.029,2.094,63.029 M11.108,85.285c-1.002-1.59-1.342-2.107-2.248-3.137
		c-1.095-1.243-1.973-1.802-3.282-4.354c-2.534-4.941-2.771-9.096-2.888-13.782c2.231,1.244,6.35,4.234,8.143,8.833
		c0.814,2.084,1.092,4.447,1.092,6.73c0,2.324-0.121,3.942-0.378,5.268C11.511,85.027,11.143,85.135,11.108,85.285z"/>
	<path clip-path="url(#SVGID_2_)" fill="#676767" d="M11.642,84.931c0.009,0.119-0.215-0.344-0.334-0.333
		c-0.118,0.011-0.189,0.63-0.2,0.511c-0.439-5.261-1.298-6.857-3.347-10.374c-0.06-0.101-0.018-0.366,0.079-0.295
		C8.56,74.969,11.195,79.575,11.642,84.931"/>
	<path clip-path="url(#SVGID_2_)" fill="#676767" d="M16.114,72.74c-1.174,1.144-3.004,5.007-3.487,7.479
		c-0.022,0.117-0.134-0.655-0.106-0.771c0.623-2.582,2.183-5.902,3.451-6.808C16.273,72.425,16.304,72.556,16.114,72.74"/>
	<path clip-path="url(#SVGID_2_)" fill="#676767" d="M11.112,72.309c0.006-2.772,0.348-5.273,0.649-6.414
		c-0.016-0.347-0.113-0.17-0.142-0.063c-0.763,2.758-0.672,3.656-0.677,6.323L11.112,72.309"/>
	<path clip-path="url(#SVGID_2_)" fill="#676767" d="M21.289,105.603c-0.475-2.235-0.65-4.144-0.796-6.199
		c-0.429-0.048-0.76,2.611,0.274,5.78L21.289,105.603"/>
	<path clip-path="url(#SVGID_2_)" fill="#676767" d="M33.128,115.353c-2.847-2.124-5.739-3.067-8.45-4.079l-1.727-0.652l-0.448-0.23
		l0.159,0.482c0.52,2.082,1.251,5.879,4.007,9.631l0.821-0.192c-2.425-3.155-3.402-6.698-4.086-8.848
		c0.472,0.176,8.52,3.479,9.574,4.651L33.128,115.353"/>
	<path clip-path="url(#SVGID_2_)" fill="#676767" d="M44.314,128.072l0.875,0.03c-0.933-1.284-1.331-2.608-1.797-4.235
		c-0.498-1.756-0.998-3.649-2.173-5.453c-2.15-3.166-4.783-5.151-7.184-7.038l-1.392-1.087l0.099,2.049
		c0.028,2.275-0.083,5.718,1.474,8.606l0.649-0.013c-1.504-2.795-1.56-8.892-1.571-9.335c0.299,0.237,5.223,4.058,7.335,7.164
		c1.136,1.745,1.544,3.493,2.037,5.213C43.085,125.437,43.561,126.842,44.314,128.072"/>
	<path clip-path="url(#SVGID_2_)" fill="#676767" d="M20.234,122.164l0.343,0.236c3.186,2.202,7.895,5.463,13.305,6.485
		c2.198,0.428,3.79,0.294,5.476,0.158c1.488-0.121,2.615-0.345,4.753-0.125l-0.475-0.947h0.61c-1.254-1.815-5.586-6.334-10.778-7.58
		c-5.174-1.196-10.673,0.519-12.86,1.589L20.234,122.164 M43.401,128.103c-1.457,0.035-2.56,0.134-3.926,0.246
		c-1.652,0.134-3.199,0.043-5.345-0.296c-5.514-0.872-9.398-3.579-12.549-5.734c2.334-1.045,7.017-2.472,11.774-1.158
		c2.158,0.596,4.321,1.623,6.151,2.986C41.629,125.728,42.571,127.144,43.401,128.103z"/>
	<path clip-path="url(#SVGID_2_)" fill="#676767" d="M41.162,126.562c0.106,0.056,0.525,0.515,0.461,0.616
		c-0.062,0.102-0.632-0.031-0.739-0.086c-4.746-2.381-6.024-2.645-9.388-3.309c-0.119-0.025-0.306-0.207-0.191-0.242
		C32.159,123.279,36.558,124.166,41.162,126.562"/>
	<path clip-path="url(#SVGID_2_)" fill="#676767" d="M36.401,116.732c1.358,2.004,3.528,6.502,3.913,7.268
		c0.053,0.109-0.78-0.258-0.815-0.371c-0.438-1.45-2.372-5.396-3.546-6.909C35.724,116.428,36.253,116.514,36.401,116.732"/>
	<path clip-path="url(#SVGID_2_)" fill="#676767" d="M32.999,120.449c-2.217-1.667-4.188-3.353-5.901-5.501
		c1.546,2.652,2.937,3.884,5.368,5.511L32.999,120.449"/>
	<path clip-path="url(#SVGID_2_)" fill="#676767" d="M50.255,135.721c-3.214-2.345-4.918-5.403-6.023-7.281
		c0.503,0.038,8.066,0.444,10.224,1.703l-0.011-0.81c-3.442-1.527-6.231-1.3-9.114-1.507l-1.841-0.142l-0.496-0.095l0.289,0.42
		c1.084,1.854,2.757,5.254,6.292,8.135L50.255,135.721"/>
	<path clip-path="url(#SVGID_2_)" fill="#676767" d="M69.809,139.188l0.363-0.404c-1.718-1.609-2.372-2.687-3.275-4.117
		c-0.972-1.539-2.028-3.619-3.663-5.022c-2.713-2.611-11.017-5.361-11.017-5.361s2.189,7.464,4.982,10.145l0.767-0.194
		c-2.228-2.255-3.575-5.778-4.761-8.825c0.355,0.143,6.221,2.137,9.12,4.525c1.581,1.36,2.872,3.455,3.827,4.97
		C67.289,136.932,69.809,139.188,69.809,139.188"/>
	<path clip-path="url(#SVGID_2_)" fill="#676767" d="M43.824,139.456l0.695,0.201c3.677,1.223,9.112,3.028,14.592,2.487
		c2.229-0.213,3.721-0.78,5.3-1.388c1.394-0.534,3.283-0.939,5.5-1.297l0.168-0.471l-0.53-0.392
		c-1.735-1.246-7.888-4.75-13.221-4.489c-5.302,0.303-9.582,3.268-11.611,4.789L43.824,139.456 M68.996,138.852
		c-1.841,0.386-3.228,0.655-4.509,1.146c-1.547,0.596-3.196,0.943-5.332,1.346c-3.524,0.664-10.144-0.902-13.772-2.088
		c1.944-1.657,6.883-4.189,10.97-4.364c2.236-0.097,4.683,0.431,6.823,1.226C65.658,137.04,67.928,138.159,68.996,138.852z"/>
	<path clip-path="url(#SVGID_2_)" fill="#676767" d="M55.203,138.151c-0.118,0.023-0.651,0.34-0.618,0.45
		c0.03,0.117,0.612,0.155,0.73,0.136c5.235-0.892,6.535-0.77,9.946-0.429c0.12,0.015,0.352-0.106,0.254-0.172
		C64.773,137.637,60.308,137.2,55.203,138.151"/>
	<path clip-path="url(#SVGID_2_)" fill="#676767" d="M58.575,130.386c1.252,1.852,4.752,4.637,5.337,5.264
		c0.08,0.088-0.822-0.027-0.888-0.13c-0.826-1.267-4.333-4.112-5.344-5.633C57.474,129.577,58.428,130.169,58.575,130.386"/>
	<path clip-path="url(#SVGID_2_)" fill="#676767" d="M54.971,134.462c-2.187-1.701-3.646-2.366-6.17-3.451
		c-0.699-0.391,0.618,0,1.124,0.16c1.936,0.623,3.881,1.729,5.63,3.248L54.971,134.462"/>
	<path clip-path="url(#SVGID_2_)" fill="#676767" d="M73.57,135.686c-0.084-0.161-0.258-0.454-0.258-0.454
		c-0.458-0.621-1.791-1.423-2.919-1.23c-0.711,0.117-1.185,0.435-1.409,0.945c-0.528,1.207,0.643,3.153,1.466,3.465l0.278-0.236
		c-1.069-0.823-1.699-2.273-1.358-3.053c0.156-0.354,0.551-0.627,1.097-0.715c0.415-0.07,0.879,0.106,1.289,0.272
		c-0.072,0.002-0.945,0.034-1.316,0.752c-0.369,0.713-0.214,1.786,0.578,2.616l0.488-0.066c-0.694-0.679-0.905-1.771-0.628-2.334
		c0.143-0.291,0.447-0.518,0.764-0.544c0.422-0.032,0.672-0.034,0.955,0.134c0.213,0.125,0.514,0.5,0.636,0.731
		c0.359,0.685,0.123,1.556-0.232,1.993l0.379,0.308C73.833,137.712,74.032,136.565,73.57,135.686"/>
	<path clip-path="url(#SVGID_2_)" fill="#676767" d="M71.934,135.026c0.922,0.773,0.587,2.164,0.394,2.793l0.466,0.143
		c0.194-0.629,0.441-2.098-0.728-3.08L71.934,135.026"/>
	<path clip-path="url(#SVGID_2_)" fill="#676767" d="M74.772,136.173c0.155-1.27,1.758-1.993,2.811-1.547
		c0.517,0.222,0.859,0.515,1.002,1.039c0.356,1.295-0.926,3.092-1.728,3.422l-0.304-0.508c1.168-0.627,1.713-1.801,1.592-2.646
		c-0.051-0.353-0.178-0.752-0.653-0.983c-0.379-0.187-0.881-0.121-1.319,0.043c0.073,0.014,0.925,0.201,1.162,0.975
		c0.238,0.766-0.144,1.882-0.85,2.626l-0.475-0.13c0.583-0.614,1.145-1.7,0.971-2.301c-0.089-0.315-0.28-0.603-0.666-0.815
		c-0.249-0.134-0.52-0.089-0.52-0.089c-0.441,0.281-0.518,0.632-0.599,1.016c-0.157,0.752,0.012,1.498,0.064,1.854l-0.344-0.02
		C74.792,137.628,74.65,137.165,74.772,136.173"/>
	<path clip-path="url(#SVGID_2_)" fill="#676767" d="M75.59,135.141c-1.374,0.931-1.602,1.998-1.778,3.327l-0.406-0.191
		c0.224-1.85,1.265-3.074,2.659-3.609L75.59,135.141"/>
	<path clip-path="url(#SVGID_2_)" fill="#676767" d="M115.542,53.344c0.431-0.368,0.731-0.627,0.731-0.627l-2.835-4.625
		c0,0-3.955,1.627-4.457,1.836c-0.303-0.393-1.856-2.473-2.14-2.844c0.284-0.425,2.629-3.944,2.629-3.944l-3.97-3.79
		c0,0-3.5,2.568-3.933,2.886c-0.387-0.298-2.445-1.859-2.815-2.144c0.167-0.487,1.578-4.601,1.578-4.601l-0.526-0.333l-0.561,0.62
		c-0.192,0.559-1.546,4.506-1.546,4.506l3.858,2.969c0,0,3.398-2.493,3.874-2.841c0.391,0.375,2.503,2.404,2.892,2.78
		c-0.325,0.486-2.575,3.863-2.575,3.863l2.969,3.861c0,0,3.841-1.58,4.391-1.807c0.287,0.467,1.825,2.975,2.113,3.442
		c-0.125,0.105-0.449,0.383-0.857,0.732L115.542,53.344 M113.682,60.105c0,0,4.056-0.562,4.641-0.645
		c0.165,0.522,1.063,3.381,1.226,3.9c-0.526,0.271-4.26,2.197-4.26,2.197l0.529,2.736l1.045,0.234
		c-0.179-0.929-0.437-2.163-0.501-2.495c0.475-0.246,4.169-2.166,4.169-2.166l-1.637-5.304c0,0-2.934,0.407-4.205,0.582
		L113.682,60.105z M103.799,106.396c0.487-0.447,0.804-0.727,0.952-0.859c0.453,0.252,4.065,2.267,4.065,2.267l3.555-4.153
		c0,0-2.522-3.2-2.845-3.593c0.24-0.395,1.498-2.57,1.759-3.001c0.527,0.163,0.459,0.143,4.534,1.351l2.523-5.038
		c0,0-3.337-2.487-3.758-2.796c0.149-0.448,0.967-2.902,1.116-3.346c0.104,0,0.186-0.091,0.537-0.091l-1.306-0.812l-1.487,4.463
		c0,0,3.397,2.491,3.87,2.837c-0.235,0.485-1.542,3.18-1.784,3.677c-0.572-0.175-4.653-1.423-4.653-1.423l-2.526,4.16
		c0,0,2.587,3.151,2.961,3.604c-0.35,0.411-2.212,2.599-2.557,3c-0.504-0.282-4.129-2.322-4.129-2.322l-1.163,1.063L103.799,106.396
		z M48.16,114.236l0.596,0.441c0,0,3.085-2.805,3.461-3.149c0.409,0.216,2.572,1.357,2.99,1.582
		c-0.098,0.517-0.828,4.716-0.828,4.716l5.06,2.031c0,0,2.165-3.47,2.445-3.927c0.474,0.133,2.984,0.786,3.444,0.914
		c0.016,0.53,0.178,4.726,0.178,4.726l5.503,0.744c0,0,1.332-3.963,1.49-4.462c0.477,0,3.064,0,3.553,0
		c0.147,0.517,1.267,4.457,1.267,4.457l5.504-0.599c0,0,0.278-4.172,0.306-4.713c0.484-0.106,2.992-0.684,3.445-0.783
		c0.266,0.434,2.455,3.943,2.455,3.943l5.053-2.029c0,0-0.566-3.944-0.651-4.45c0.409-0.22,2.563-1.356,2.986-1.58
		c0.375,0.373,3.275,3.141,3.275,3.141l1.887-1.321l-0.405-0.709c-0.622,0.434-1.195,0.838-1.389,0.969
		c-0.417-0.416-3.356-3.354-3.356-3.354l-4.167,2.234c0,0,0.68,4.084,0.774,4.647c-0.485,0.191-3.167,1.247-3.671,1.443
		c-0.307-0.5-2.445-3.986-2.445-3.986l-4.749,1.039c0,0-0.226,4.185-0.258,4.779c-0.542,0.06-3.46,0.385-4.001,0.443
		c-0.162-0.567-1.291-4.521-1.291-4.521H71.72c0,0-1.24,3.948-1.417,4.512c-0.54-0.072-3.463-0.48-4.003-0.555
		c-0.015-0.593-0.128-4.768-0.128-4.768l-4.75-1.338c0,0-2.148,3.507-2.454,4.007c-0.503-0.199-3.169-1.25-3.665-1.444
		c0.109-0.57,0.904-4.775,0.904-4.775l-4.162-2.233c0,0-3.043,2.819-3.476,3.222L48.16,114.236z M36.954,53.514
		c-0.877-0.812-1.904-1.762-2.144-1.983c0.305-0.459,1.932-2.899,2.227-3.338c0.532,0.219,4.39,1.808,4.39,1.808l3.117-3.713
		c0,0-2.261-3.503-2.58-3.998c0.397-0.368,2.497-2.306,2.886-2.664c0.468,0.343,3.876,2.841,3.876,2.841l2.964-2.166l-0.445-0.683
		c-0.749,0.547-2.209,1.614-2.519,1.841c-0.423-0.31-3.935-2.887-3.935-2.887l-3.881,3.584c0,0,2.339,3.627,2.626,4.068
		c-0.309,0.369-2.043,2.434-2.349,2.798c-0.484-0.201-4.458-1.836-4.458-1.836l-2.98,4.469c0,0,1.017,0.942,1.968,1.824
		L36.954,53.514z M33.974,57.94c-1.398-0.189-3.097-0.418-3.097-0.418l-1.644,4.932c0,0,3.734,2.1,4.194,2.359
		c-0.058,0.264-0.267,1.222-0.456,2.091l0.876-0.208l0.504-2.296c0,0-3.628-2.042-4.134-2.326c0.168-0.501,1.05-3.152,1.218-3.656
		c0.332,0.045,1.845,0.248,3.081,0.417L33.974,57.94z M30.951,86.093c1.156,0,2.385,0,2.644,0c0.148,0.444,0.964,2.89,1.114,3.341
		c-0.434,0.31-4.064,2.888-4.064,2.888l2.237,4.774c0,0,4.208-1.053,4.719-1.18c0.249,0.409,1.66,2.73,1.904,3.137
		c-0.338,0.394-3.15,3.671-3.15,3.671l3.373,4.269c0,0,3.875-2.115,4.336-2.363c0.124,0.115,0.355,0.332,0.734,0.696l0.258-0.878
		l-0.951-0.908c0,0-3.73,2.035-4.252,2.32c-0.336-0.431-2.118-2.695-2.444-3.111c0.375-0.44,3.098-3.613,3.098-3.613l-2.521-4.153
		c0,0-4.088,1.021-4.652,1.162c-0.225-0.479-1.437-3.065-1.665-3.553c0.48-0.342,4.003-2.84,4.003-2.84l-1.49-4.47
		c0,0-0.675,0-1.521,0L30.951,86.093z M95.915,33.026l-0.311-0.17c0,0-2.671,3.252-3.013,3.666c-0.448-0.195-2.83-1.235-3.259-1.42
		c0.042-0.512,0.394-4.739,0.394-4.739l-5.304-1.37c0,0-0.254,0.524-0.587,1.207l0.314,1.221c0.339-0.702,0.633-1.305,0.715-1.475
		c0.511,0.133,3.372,0.868,3.9,1.005c-0.049,0.586-0.386,4.632-0.386,4.632l4.452,1.929L95.915,33.026z M64.551,29.007l-3.627,0.932
		c0,0,0.235,4.344,0.263,4.858c-0.432,0.172-2.877,1.15-3.34,1.335c-0.327-0.443-2.886-3.933-2.886-3.933l-3.97,2.11l0.474,0.667
		c0.84-0.445,2.832-1.504,3.257-1.728c0.357,0.489,2.84,3.874,2.84,3.874l4.468-1.788c0,0-0.226-4.196-0.258-4.773
		c0.323-0.083,1.57-0.404,2.583-0.663L64.551,29.007z"/>
	<path clip-path="url(#SVGID_2_)" fill="#676767" d="M82.534,90.582c4.379,5.072,7.266,9.698,7.266,11.869
		c0,0.203-0.026,0.388-0.077,0.549c-1.099,3.315-8.22,7.261-14.964,7.138c-5.874-0.13-12.295-3.451-13.92-7.142
		c-0.09-0.234-0.136-0.516-0.136-0.834c0-2.143,2.029-6.173,6.232-11.282l-0.617-0.764c-4.84,5.825-7.318,10.771-6.39,13.157
		c1.775,4.029,8.554,7.538,14.816,7.679c6.621,0.121,14.423-3.693,15.751-7.698c0.795-2.412-2.649-7.808-7.384-13.262L82.534,90.582
		 M78.793,85.366c-0.339-0.341-1.22-1.199-1.22-1.199s-1.343,0.64-2.929,0.595c-1.522,0.024-2.683-0.76-2.683-0.76
		s-0.973,0.972-1.334,1.342l0.519,0.643c0.311-0.319,0.61-0.553,0.935-0.877c0.866,0.472,1.608,0.576,2.532,0.558
		c1.054,0.055,1.773-0.064,2.753-0.454c0.281,0.273,0.577,0.455,0.852,0.731L78.793,85.366z"/>
	<path clip-path="url(#SVGID_2_)" fill="#676767" d="M40.202,82.6c1.423,4.058,3.883,7.507,6.433,8.418
		c0.538,0.169,1.219,0.133,2.011-0.078l0.205-0.862c-0.764,0.246-1.384,0.31-1.828,0.17c-2.129-0.76-4.509-3.941-5.913-7.862
		L40.202,82.6 M52.672,89.043c2.26-1.389,4.83-3.373,6.86-5.159l-0.545-0.616c-1.838,1.61-4.129,3.373-6.122,4.668L52.672,89.043z
		 M46.32,61.511c0.202-0.117,0.407-0.218,0.61-0.303c0.999-0.399,2.807,0.011,5.217,1.266l1.142-0.32
		c-2.892-1.63-5.234-2.269-6.666-1.699c-0.304,0.126-0.604,0.283-0.898,0.468L46.32,61.511z"/>
	<path clip-path="url(#SVGID_2_)" fill="#676767" d="M95.879,62.884c3.019-2.049,5.435-3.105,6.589-2.707
		c0.414,0.135,0.837,0.363,1.26,0.668l0.547-0.619c-0.506-0.368-1.024-0.647-1.546-0.82c-1.595-0.551-4.53,0.815-7.93,3.209
		L95.879,62.884 M95.094,86.646c-1.565-1.015-3.309-2.317-4.751-3.576l-0.505,0.629c1.685,1.455,3.711,2.943,5.544,4.064
		L95.094,86.646z M107.608,83.41c-1.326,2.771-3.177,4.964-5.166,5.809c-0.729,0.292-1.893,0.146-3.41-0.459l0.167,0.908
		c1.479,0.526,2.695,0.648,3.553,0.301c2.162-0.918,4.172-3.288,5.592-6.263L107.608,83.41z"/>
	<path clip-path="url(#SVGID_2_)" fill="#676767" d="M75.794,39.846c-0.399-0.036-0.799-0.058-1.198-0.065
		c-0.842-0.033-1.709,0.006-2.582,0.107l-0.245,0.833c0.93-0.116,1.871-0.163,2.803-0.127c0.473,0.009,0.949,0.04,1.428,0.087
		L75.794,39.846"/>
	<path clip-path="url(#SVGID_2_)" fill="#676767" d="M84.407,31.828c-0.134,0-0.243,0.11-0.243,0.243
		c0,0.136,0.109,0.244,0.243,0.244h4.71c0.135,0,0.244-0.108,0.244-0.244c0-0.133-0.109-0.243-0.244-0.243H84.407"/>
	<path clip-path="url(#SVGID_2_)" fill="#676767" d="M61.447,31.828c-0.135,0-0.244,0.11-0.244,0.243
		c0,0.136,0.109,0.244,0.244,0.244h2.178c0.134,0,0.245-0.108,0.245-0.244c0-0.133-0.111-0.243-0.245-0.243H61.447"/>
	<path clip-path="url(#SVGID_2_)" fill="#676767" d="M85.02,34.171c-0.134,0-0.244,0.109-0.244,0.244
		c0,0.135,0.11,0.245,0.244,0.245h3.863c0.134,0,0.244-0.11,0.244-0.245c0-0.135-0.11-0.244-0.244-0.244H85.02"/>
	<path clip-path="url(#SVGID_2_)" fill="#676767" d="M61.573,34.171c-0.134,0-0.243,0.109-0.243,0.244
		c0,0.135,0.109,0.245,0.243,0.245h1.49c0.136,0,0.245-0.11,0.245-0.245c0-0.135-0.109-0.244-0.245-0.244H61.573"/>
	<path clip-path="url(#SVGID_2_)" fill="#676767" d="M51.49,34.171c-0.135,0-0.244,0.109-0.244,0.244
		c0,0.135,0.109,0.245,0.244,0.245h4.593c0.135,0,0.243-0.11,0.243-0.245c0-0.135-0.108-0.244-0.243-0.244H51.49"/>
	<path clip-path="url(#SVGID_2_)" fill="#676767" d="M85.53,36.513c-0.133,0-0.244,0.111-0.244,0.245
		c0,0.134,0.111,0.243,0.244,0.243h6.195c0.135,0,0.244-0.109,0.244-0.243c0-0.134-0.109-0.245-0.244-0.245H85.53"/>
	<path clip-path="url(#SVGID_2_)" fill="#676767" d="M73.378,36.513c-0.135,0-0.244,0.111-0.244,0.245
		c0,0.134,0.109,0.243,0.244,0.243h1.506c0.136,0,0.245-0.109,0.245-0.243c0-0.134-0.109-0.245-0.245-0.245H73.378"/>
	<path clip-path="url(#SVGID_2_)" fill="#676767" d="M52.768,36.513c-0.135,0-0.244,0.111-0.244,0.245
		c0,0.134,0.109,0.243,0.244,0.243h9.631c0.134,0,0.246-0.109,0.246-0.243c0-0.134-0.112-0.245-0.246-0.245H52.768"/>
	<path clip-path="url(#SVGID_2_)" fill="#676767" d="M96.742,39.397c-0.135,0-0.244,0.11-0.244,0.245
		c0,0.134,0.109,0.243,0.244,0.243h1.792c0.135,0,0.244-0.109,0.244-0.243c0-0.135-0.109-0.245-0.244-0.245H96.742"/>
	<path clip-path="url(#SVGID_2_)" fill="#676767" d="M86.143,38.854c-0.134,0-0.243,0.111-0.243,0.244
		c0,0.138,0.109,0.245,0.243,0.245h5.684c0.133,0,0.243-0.107,0.243-0.245c0-0.133-0.11-0.244-0.243-0.244H86.143"/>
	<path clip-path="url(#SVGID_2_)" fill="#676767" d="M72.638,38.854c-0.135,0-0.245,0.111-0.245,0.244
		c0,0.138,0.11,0.245,0.245,0.245h2.833c0.137,0,0.245-0.107,0.245-0.245c0-0.133-0.108-0.244-0.245-0.244H72.638"/>
	<path clip-path="url(#SVGID_2_)" fill="#676767" d="M54.224,38.854c-0.135,0-0.244,0.111-0.244,0.244
		c0,0.138,0.109,0.245,0.244,0.245h7.589c0.134,0,0.244-0.107,0.244-0.245c0-0.133-0.11-0.244-0.244-0.244H54.224"/>
	<path clip-path="url(#SVGID_2_)" fill="#676767" d="M102.793,41.741c-0.134,0-0.244,0.108-0.244,0.244
		c0,0.135,0.11,0.243,0.244,0.243h4.296c0.135,0,0.244-0.108,0.244-0.243c0-0.136-0.109-0.244-0.244-0.244H102.793"/>
	<path clip-path="url(#SVGID_2_)" fill="#676767" d="M86.833,41.199c-0.135,0-0.244,0.107-0.244,0.244
		c0,0.133,0.109,0.244,0.244,0.244h3.478c0.134,0,0.243-0.111,0.243-0.244c0-0.137-0.109-0.244-0.243-0.244H86.833"/>
	<path clip-path="url(#SVGID_2_)" fill="#676767" d="M55.568,41.199c-0.134,0-0.244,0.107-0.244,0.244
		c0,0.133,0.11,0.244,0.244,0.244h5.683c0.135,0,0.243-0.111,0.243-0.244c0-0.137-0.108-0.244-0.243-0.244H55.568"/>
	<path clip-path="url(#SVGID_2_)" fill="#676767" d="M93.71,44.083c-0.135,0-0.243,0.109-0.243,0.244
		c0,0.134,0.108,0.245,0.243,0.245h14.252c0.135,0,0.244-0.111,0.244-0.245c0-0.135-0.109-0.244-0.244-0.244H93.71"/>
	<path clip-path="url(#SVGID_2_)" fill="#676767" d="M43.171,44.083c-0.135,0-0.245,0.109-0.245,0.244
		c0,0.134,0.11,0.245,0.245,0.245h11.596c0.134,0,0.243-0.111,0.243-0.245c0-0.135-0.109-0.244-0.243-0.244H43.171"/>
	<path clip-path="url(#SVGID_2_)" fill="#676767" d="M92.346,46.295c-0.136,0-0.245,0.11-0.245,0.245
		c0,0.134,0.109,0.244,0.245,0.244h14.318c0.134,0,0.244-0.11,0.244-0.244c0-0.135-0.11-0.245-0.244-0.245H92.346"/>
	<path clip-path="url(#SVGID_2_)" fill="#676767" d="M58.929,45.754c-0.134,0-0.244,0.109-0.244,0.244
		c0,0.133,0.11,0.244,0.244,0.244h1.234c0.135,0,0.244-0.111,0.244-0.244c0-0.135-0.109-0.244-0.244-0.244H58.929"/>
	<path clip-path="url(#SVGID_2_)" fill="#676767" d="M90.678,48.638c-0.136,0-0.245,0.108-0.245,0.245
		c0,0.133,0.109,0.244,0.245,0.244h16.944c0.134,0,0.244-0.111,0.244-0.244c0-0.137-0.11-0.245-0.244-0.245H90.678"/>
	<path clip-path="url(#SVGID_2_)" fill="#676767" d="M42.038,48.638c-0.135,0-0.244,0.108-0.244,0.245
		c0,0.133,0.109,0.244,0.244,0.244h15.21c0.136,0,0.244-0.111,0.244-0.244c0-0.137-0.108-0.245-0.244-0.245H42.038"/>
	<path clip-path="url(#SVGID_2_)" fill="#676767" d="M89.34,50.979c-0.135,0-0.245,0.111-0.245,0.245
		c0,0.135,0.11,0.244,0.245,0.244h25.531c0.135,0,0.245-0.109,0.245-0.244c0-0.134-0.11-0.245-0.245-0.245H89.34"/>
	<path clip-path="url(#SVGID_2_)" fill="#676767" d="M34.748,50.979c-0.135,0-0.245,0.111-0.245,0.245
		c0,0.135,0.11,0.244,0.245,0.244h23.528c0.134,0,0.244-0.109,0.244-0.244c0-0.134-0.11-0.245-0.244-0.245H34.748"/>
	<path clip-path="url(#SVGID_2_)" fill="#676767" d="M113.457,59.808c-0.135,0-0.244,0.11-0.244,0.243
		c0,0.135,0.109,0.245,0.244,0.245h5.199c0.134,0,0.244-0.11,0.244-0.245c0-0.133-0.11-0.243-0.244-0.243H113.457"/>
	<path clip-path="url(#SVGID_2_)" fill="#676767" d="M30.936,59.808c-0.136,0-0.244,0.11-0.244,0.243
		c0,0.135,0.108,0.245,0.244,0.245h4.858c0.135,0,0.244-0.11,0.244-0.245c0-0.133-0.109-0.243-0.244-0.243H30.936"/>
	<path clip-path="url(#SVGID_2_)" fill="#676767" d="M111.511,62.149c-0.134,0-0.243,0.111-0.243,0.244
		c0,0.137,0.109,0.243,0.243,0.243h7.983c0.134,0,0.243-0.106,0.243-0.243c0-0.133-0.109-0.244-0.243-0.244H111.511"/>
	<path clip-path="url(#SVGID_2_)" fill="#676767" d="M30.4,62.149c-0.135,0-0.244,0.111-0.244,0.244
		c0,0.137,0.109,0.243,0.244,0.243h7.653c0.135,0,0.245-0.106,0.245-0.243c0-0.133-0.11-0.244-0.245-0.244H30.4"/>
	<path clip-path="url(#SVGID_2_)" fill="#676767" d="M108.931,64.493c-0.136,0-0.245,0.108-0.245,0.244
		c0,0.135,0.109,0.244,0.245,0.244h8.72c0.135,0,0.245-0.109,0.245-0.244c0-0.136-0.11-0.244-0.245-0.244H108.931"/>
	<path clip-path="url(#SVGID_2_)" fill="#676767" d="M34.248,64.493c-0.134,0-0.244,0.108-0.244,0.244
		c0,0.135,0.11,0.244,0.244,0.244h6.155c0.136,0,0.245-0.109,0.245-0.244c0-0.136-0.109-0.244-0.245-0.244H34.248"/>
	<path clip-path="url(#SVGID_2_)" fill="#676767" d="M112.34,66.836c-0.134,0-0.243,0.108-0.243,0.243
		c0,0.135,0.109,0.244,0.243,0.244h3.515c0.135,0,0.245-0.109,0.245-0.244c0-0.135-0.11-0.243-0.245-0.243H112.34"/>
	<path clip-path="url(#SVGID_2_)" fill="#676767" d="M70.146,80.761c-0.136,0-0.246,0.108-0.246,0.244
		c0,0.133,0.11,0.243,0.246,0.243h9.118c0.134,0,0.243-0.11,0.243-0.243c0-0.136-0.109-0.244-0.243-0.244H70.146"/>
	<path clip-path="url(#SVGID_2_)" fill="#676767" d="M38.592,83.101c-0.135,0-0.246,0.11-0.246,0.246
		c0,0.135,0.111,0.243,0.246,0.243h2.417c0.135,0,0.243-0.108,0.243-0.243c0-0.136-0.108-0.246-0.243-0.246H38.592"/>
	<path clip-path="url(#SVGID_2_)" fill="#676767" d="M106.711,85.443c-0.134,0-0.244,0.11-0.244,0.242
		c0,0.138,0.11,0.245,0.244,0.245h6.022c0.136,0,0.245-0.107,0.245-0.245c0-0.132-0.109-0.242-0.245-0.242H106.711"/>
	<path clip-path="url(#SVGID_2_)" fill="#676767" d="M87.984,85.443c-0.135,0-0.244,0.11-0.244,0.242
		c0,0.138,0.109,0.245,0.244,0.245h5.145c0.134,0,0.244-0.107,0.244-0.245c0-0.132-0.11-0.242-0.244-0.242H87.984"/>
	<path clip-path="url(#SVGID_2_)" fill="#676767" d="M56.594,85.443c-0.135,0-0.244,0.11-0.244,0.242
		c0,0.138,0.109,0.245,0.244,0.245h4.858c0.135,0,0.244-0.107,0.244-0.245c0-0.132-0.109-0.242-0.244-0.242H56.594"/>
	<path clip-path="url(#SVGID_2_)" fill="#676767" d="M33.853,85.443c-0.136,0-0.245,0.11-0.245,0.242
		c0,0.138,0.109,0.245,0.245,0.245h8.25c0.135,0,0.245-0.107,0.245-0.245c0-0.132-0.11-0.242-0.245-0.242H33.853"/>
	<path clip-path="url(#SVGID_2_)" fill="#676767" d="M104.805,87.789c-0.135,0-0.245,0.108-0.245,0.243
		c0,0.133,0.11,0.244,0.245,0.244h10.045c0.136,0,0.246-0.111,0.246-0.244c0-0.135-0.11-0.243-0.246-0.243H104.805"/>
	<path clip-path="url(#SVGID_2_)" fill="#676767" d="M87.262,87.789c-0.136,0-0.244,0.108-0.244,0.243
		c0,0.133,0.108,0.244,0.244,0.244h7.842c0.134,0,0.244-0.111,0.244-0.244c0-0.135-0.11-0.243-0.244-0.243H87.262"/>
	<path clip-path="url(#SVGID_2_)" fill="#676767" d="M53.374,87.789c-0.134,0-0.243,0.108-0.243,0.243
		c0,0.133,0.109,0.244,0.243,0.244h6.613c0.134,0,0.244-0.111,0.244-0.244c0-0.135-0.11-0.243-0.244-0.243H53.374"/>
	<path clip-path="url(#SVGID_2_)" fill="#676767" d="M34.727,87.789c-0.137,0-0.246,0.108-0.246,0.243
		c0,0.133,0.109,0.244,0.246,0.244h8.562c0.134,0,0.242-0.111,0.242-0.244c0-0.135-0.108-0.243-0.242-0.243H34.727"/>
	<path clip-path="url(#SVGID_2_)" fill="#676767" d="M99.461,90.129c-0.133,0-0.243,0.111-0.243,0.244
		c0,0.135,0.11,0.243,0.243,0.243h14.606c0.135,0,0.244-0.108,0.244-0.243c0-0.133-0.109-0.244-0.244-0.244H99.461"/>
	<path clip-path="url(#SVGID_2_)" fill="#676767" d="M88.956,90.129c-0.135,0-0.245,0.111-0.245,0.244
		c0,0.135,0.11,0.243,0.245,0.243h7.455c0.135,0,0.245-0.108,0.245-0.243c0-0.133-0.11-0.244-0.245-0.244H88.956"/>
	<path clip-path="url(#SVGID_2_)" fill="#676767" d="M83.127,90.129c-0.133,0-0.244,0.111-0.244,0.244
		c0,0.135,0.111,0.243,0.244,0.243h2.44c0.135,0,0.245-0.108,0.245-0.243c0-0.133-0.11-0.244-0.245-0.244H83.127"/>
	<path clip-path="url(#SVGID_2_)" fill="#676767" d="M63.929,90.129c-0.135,0-0.243,0.111-0.243,0.244
		c0,0.135,0.108,0.243,0.243,0.243h2.784c0.136,0,0.244-0.108,0.244-0.243c0-0.133-0.108-0.244-0.244-0.244H63.929"/>
	<path clip-path="url(#SVGID_2_)" fill="#676767" d="M52.249,90.129c-0.135,0-0.244,0.111-0.244,0.244
		c0,0.135,0.109,0.243,0.244,0.243h6.424c0.135,0,0.244-0.108,0.244-0.243c0-0.133-0.109-0.244-0.244-0.244H52.249"/>
	<path clip-path="url(#SVGID_2_)" fill="#676767" d="M34.03,90.129c-0.135,0-0.245,0.111-0.245,0.244
		c0,0.135,0.11,0.243,0.245,0.243h11.827c0.136,0,0.246-0.108,0.246-0.243c0-0.133-0.11-0.244-0.246-0.244H34.03"/>
	<path clip-path="url(#SVGID_2_)" fill="#676767" d="M100.071,92.472c-0.133,0-0.243,0.108-0.243,0.245
		c0,0.134,0.11,0.245,0.243,0.245h16.36c0.133,0,0.243-0.111,0.243-0.245c0-0.137-0.11-0.245-0.243-0.245H100.071"/>
	<path clip-path="url(#SVGID_2_)" fill="#676767" d="M90.447,92.472c-0.134,0-0.244,0.108-0.244,0.245
		c0,0.134,0.11,0.245,0.244,0.245h6.711c0.134,0,0.244-0.111,0.244-0.245c0-0.137-0.11-0.245-0.244-0.245H90.447"/>
	<path clip-path="url(#SVGID_2_)" fill="#676767" d="M85.025,92.472c-0.134,0-0.245,0.108-0.245,0.245
		c0,0.134,0.111,0.245,0.245,0.245h2.032c0.135,0,0.245-0.111,0.245-0.245c0-0.137-0.11-0.245-0.245-0.245H85.025"/>
	<path clip-path="url(#SVGID_2_)" fill="#676767" d="M62.362,92.472c-0.135,0-0.245,0.108-0.245,0.245
		c0,0.134,0.11,0.245,0.245,0.245h2.479c0.136,0,0.245-0.111,0.245-0.245c0-0.137-0.109-0.245-0.245-0.245H62.362"/>
	<path clip-path="url(#SVGID_2_)" fill="#676767" d="M68.486,83.12c-0.134,0-0.244,0.107-0.244,0.245
		c0,0.133,0.11,0.242,0.244,0.242h11.791c0.135,0,0.244-0.109,0.244-0.242c0-0.138-0.109-0.245-0.244-0.245H68.486"/>
	<path clip-path="url(#SVGID_2_)" fill="#676767" d="M51.53,92.472c-0.135,0-0.244,0.108-0.244,0.245
		c0,0.134,0.109,0.245,0.244,0.245h5.627c0.135,0,0.244-0.111,0.244-0.245c0-0.137-0.109-0.245-0.244-0.245H51.53"/>
	<path clip-path="url(#SVGID_2_)" fill="#676767" d="M31.767,92.472c-0.137,0-0.244,0.108-0.244,0.245
		c0,0.134,0.107,0.245,0.244,0.245h16.169c0.134,0,0.245-0.111,0.245-0.245c0-0.137-0.111-0.245-0.245-0.245H31.767"/>
	<path clip-path="url(#SVGID_2_)" fill="#676767" d="M100.681,94.814c-0.133,0-0.243,0.109-0.243,0.243
		c0,0.137,0.11,0.245,0.243,0.245h16.164c0.135,0,0.245-0.108,0.245-0.245c0-0.134-0.11-0.243-0.245-0.243H100.681"/>
	<path clip-path="url(#SVGID_2_)" fill="#676767" d="M92.006,94.814c-0.134,0-0.244,0.109-0.244,0.243
		c0,0.137,0.11,0.245,0.244,0.245h5.829c0.135,0,0.245-0.108,0.245-0.245c0-0.134-0.11-0.243-0.245-0.243H92.006"/>
	<path clip-path="url(#SVGID_2_)" fill="#676767" d="M86.583,94.814c-0.134,0-0.244,0.109-0.244,0.243
		c0,0.137,0.11,0.245,0.244,0.245h2.035c0.133,0,0.243-0.108,0.243-0.245c0-0.134-0.11-0.243-0.243-0.243H86.583"/>
	<path clip-path="url(#SVGID_2_)" fill="#676767" d="M60.897,94.814c-0.135,0-0.244,0.109-0.244,0.243
		c0,0.137,0.109,0.245,0.244,0.245h2.302c0.135,0,0.244-0.108,0.244-0.245c0-0.134-0.109-0.243-0.244-0.243H60.897"/>
	<path clip-path="url(#SVGID_2_)" fill="#676767" d="M50.76,94.814c-0.134,0-0.244,0.109-0.244,0.243
		c0,0.137,0.11,0.245,0.244,0.245h4.83c0.135,0,0.244-0.108,0.244-0.245c0-0.134-0.109-0.243-0.244-0.243H50.76"/>
	<path clip-path="url(#SVGID_2_)" fill="#676767" d="M32.737,94.814c-0.134,0-0.244,0.109-0.244,0.243
		c0,0.137,0.11,0.245,0.244,0.245H47.32c0.134,0,0.244-0.108,0.244-0.245c0-0.134-0.11-0.243-0.244-0.243H32.737"/>
	<path clip-path="url(#SVGID_2_)" fill="#676767" d="M101.359,97.156c-0.134,0-0.244,0.109-0.244,0.246
		c0,0.134,0.11,0.24,0.244,0.24h8.849c0.134,0,0.243-0.106,0.243-0.24c0-0.137-0.109-0.246-0.243-0.246H101.359"/>
	<path clip-path="url(#SVGID_2_)" fill="#676767" d="M93.429,97.156c-0.133,0-0.243,0.109-0.243,0.246c0,0.134,0.11,0.24,0.243,0.24
		h5.219c0.135,0,0.245-0.106,0.245-0.24c0-0.137-0.11-0.246-0.245-0.246H93.429"/>
	<path clip-path="url(#SVGID_2_)" fill="#676767" d="M88.211,97.156c-0.135,0-0.245,0.109-0.245,0.246c0,0.134,0.11,0.24,0.245,0.24
		h2.109c0.135,0,0.244-0.106,0.244-0.24c0-0.137-0.109-0.246-0.244-0.246H88.211"/>
	<path clip-path="url(#SVGID_2_)" fill="#676767" d="M59.381,97.156c-0.135,0-0.244,0.109-0.244,0.246
		c0,0.134,0.109,0.24,0.244,0.24h1.979c0.135,0,0.244-0.106,0.244-0.24c0-0.137-0.109-0.246-0.244-0.246H59.381"/>
	<path clip-path="url(#SVGID_2_)" fill="#676767" d="M49.938,97.156c-0.135,0-0.244,0.109-0.244,0.246
		c0,0.134,0.109,0.24,0.244,0.24h4.136c0.134,0,0.245-0.106,0.245-0.24c0-0.137-0.111-0.246-0.245-0.246H49.938"/>
	<path clip-path="url(#SVGID_2_)" fill="#676767" d="M39.23,97.156c-0.135,0-0.245,0.109-0.245,0.246c0,0.134,0.11,0.24,0.245,0.24
		h7.525c0.135,0,0.244-0.106,0.244-0.24c0-0.137-0.109-0.246-0.244-0.246H39.23"/>
	<path clip-path="url(#SVGID_2_)" fill="#676767" d="M101.969,99.5c-0.133,0-0.243,0.108-0.243,0.244
		c0,0.134,0.11,0.244,0.243,0.244h6.962c0.134,0,0.243-0.11,0.243-0.244c0-0.136-0.109-0.244-0.243-0.244H101.969"/>
	<path clip-path="url(#SVGID_2_)" fill="#676767" d="M95.056,99.5c-0.135,0-0.244,0.108-0.244,0.244
		c0,0.134,0.109,0.244,0.244,0.244h4.339c0.134,0,0.244-0.11,0.244-0.244c0-0.136-0.11-0.244-0.244-0.244H95.056"/>
	<path clip-path="url(#SVGID_2_)" fill="#676767" d="M89.565,99.5c-0.133,0-0.244,0.108-0.244,0.244
		c0,0.134,0.111,0.244,0.244,0.244h2.542c0.135,0,0.245-0.11,0.245-0.244c0-0.136-0.11-0.244-0.245-0.244H89.565"/>
	<path clip-path="url(#SVGID_2_)" fill="#676767" d="M57.864,99.5c-0.134,0-0.244,0.108-0.244,0.244c0,0.134,0.11,0.244,0.244,0.244
		h2.878c0.135,0,0.243-0.11,0.243-0.244c0-0.136-0.108-0.244-0.243-0.244H57.864"/>
	<path clip-path="url(#SVGID_2_)" fill="#676767" d="M49.219,99.5c-0.135,0-0.243,0.108-0.243,0.244
		c0,0.134,0.108,0.244,0.243,0.244h3.338c0.135,0,0.245-0.11,0.245-0.244c0-0.136-0.11-0.244-0.245-0.244H49.219"/>
	<path clip-path="url(#SVGID_2_)" fill="#676767" d="M39.627,99.5c-0.134,0-0.244,0.108-0.244,0.244c0,0.134,0.11,0.244,0.244,0.244
		h6.46c0.135,0,0.244-0.11,0.244-0.244c0-0.136-0.109-0.244-0.244-0.244H39.627"/>
	<path clip-path="url(#SVGID_2_)" fill="#676767" d="M102.579,101.711c-0.134,0-0.243,0.111-0.243,0.244
		c0,0.134,0.109,0.243,0.243,0.243h7.691c0.135,0,0.245-0.109,0.245-0.243c0-0.133-0.11-0.244-0.245-0.244H102.579"/>
	<path clip-path="url(#SVGID_2_)" fill="#676767" d="M96.547,101.711c-0.134,0-0.244,0.111-0.244,0.244
		c0,0.134,0.11,0.243,0.244,0.243h3.593c0.133,0,0.243-0.109,0.243-0.243c0-0.133-0.11-0.244-0.243-0.244H96.547"/>
	<path clip-path="url(#SVGID_2_)" fill="#676767" d="M56.399,101.711c-0.135,0-0.244,0.111-0.244,0.244
		c0,0.134,0.109,0.243,0.244,0.243h3.842c0.134,0,0.244-0.109,0.244-0.243c0-0.133-0.11-0.244-0.244-0.244H56.399"/>
	<path clip-path="url(#SVGID_2_)" fill="#676767" d="M48.501,101.711c-0.135,0-0.245,0.111-0.245,0.244
		c0,0.134,0.11,0.243,0.245,0.243h2.642c0.135,0,0.244-0.109,0.244-0.243c0-0.133-0.109-0.244-0.244-0.244H48.501"/>
	<path clip-path="url(#SVGID_2_)" fill="#676767" d="M37.858,101.711c-0.135,0-0.245,0.111-0.245,0.244
		c0,0.134,0.11,0.243,0.245,0.243h7.664c0.135,0,0.245-0.109,0.245-0.243c0-0.133-0.11-0.244-0.245-0.244H37.858"/>
	<path clip-path="url(#SVGID_2_)" fill="#676767" d="M103.123,104.053c-0.135,0-0.245,0.111-0.245,0.246
		c0,0.134,0.11,0.245,0.245,0.245h7.945c0.136,0,0.245-0.111,0.245-0.245c0-0.135-0.109-0.246-0.245-0.246H103.123"/>
	<path clip-path="url(#SVGID_2_)" fill="#676767" d="M98.106,104.053c-0.134,0-0.245,0.111-0.245,0.246
		c0,0.134,0.111,0.245,0.245,0.245h2.78c0.134,0,0.243-0.111,0.243-0.245c0-0.135-0.109-0.246-0.243-0.246H98.106"/>
	<path clip-path="url(#SVGID_2_)" fill="#676767" d="M89.702,104.053c-0.135,0-0.244,0.111-0.244,0.246
		c0,0.134,0.109,0.245,0.244,0.245h5.348c0.134,0,0.244-0.111,0.244-0.245c0-0.135-0.11-0.246-0.244-0.246H89.702"/>
	<path clip-path="url(#SVGID_2_)" fill="#676767" d="M54.882,104.053c-0.133,0-0.243,0.111-0.243,0.246
		c0,0.134,0.11,0.245,0.243,0.245h6.196c0.134,0,0.244-0.111,0.244-0.245c0-0.135-0.11-0.246-0.244-0.246H54.882"/>
	<path clip-path="url(#SVGID_2_)" fill="#676767" d="M47.731,104.053c-0.135,0-0.245,0.111-0.245,0.246
		c0,0.134,0.11,0.245,0.245,0.245h1.895c0.135,0,0.245-0.111,0.245-0.245c0-0.135-0.11-0.246-0.245-0.246H47.731"/>
	<path clip-path="url(#SVGID_2_)" fill="#676767" d="M38.752,104.053c-0.134,0-0.243,0.111-0.243,0.246
		c0,0.134,0.109,0.245,0.243,0.245h6.103c0.134,0,0.244-0.111,0.244-0.245c0-0.135-0.11-0.246-0.244-0.246H38.752"/>
	<path clip-path="url(#SVGID_2_)" fill="#676767" d="M99.733,106.396c-0.135,0-0.245,0.111-0.245,0.243
		c0,0.135,0.11,0.245,0.245,0.245h1.762c0.135,0,0.244-0.11,0.244-0.245c0-0.132-0.109-0.243-0.244-0.243H99.733"/>
	<path clip-path="url(#SVGID_2_)" fill="#676767" d="M87.398,106.396c-0.135,0-0.245,0.111-0.245,0.243
		c0,0.135,0.11,0.245,0.245,0.245h9.239c0.135,0,0.244-0.11,0.244-0.245c0-0.132-0.109-0.243-0.244-0.243H87.398"/>
	<path clip-path="url(#SVGID_2_)" fill="#676767" d="M53.366,106.396c-0.135,0-0.244,0.111-0.244,0.243
		c0,0.135,0.109,0.245,0.244,0.245h10.076c0.135,0,0.245-0.11,0.245-0.245c0-0.132-0.11-0.243-0.245-0.243H53.366"/>
	<path clip-path="url(#SVGID_2_)" fill="#676767" d="M46.875,106.396c-0.136,0-0.245,0.111-0.245,0.243
		c0,0.135,0.109,0.245,0.245,0.245h1.235c0.136,0,0.245-0.11,0.245-0.245c0-0.132-0.109-0.243-0.245-0.243H46.875"/>
	<path clip-path="url(#SVGID_2_)" fill="#676767" d="M83.08,108.738c-0.136,0-0.245,0.109-0.245,0.244
		c0,0.137,0.109,0.243,0.245,0.243h15.23c0.134,0,0.244-0.106,0.244-0.243c0-0.135-0.11-0.244-0.244-0.244H83.08"/>
	<path clip-path="url(#SVGID_2_)" fill="#676767" d="M51.799,108.738c-0.134,0-0.244,0.109-0.244,0.244
		c0,0.137,0.11,0.243,0.244,0.243h15.786c0.135,0,0.244-0.106,0.244-0.243c0-0.135-0.109-0.244-0.244-0.244H51.799"/>
	<path clip-path="url(#SVGID_2_)" fill="#676767" d="M53.215,111.081c-0.135,0-0.244,0.11-0.244,0.245
		c0,0.133,0.109,0.244,0.244,0.244h46.587c0.133,0,0.242-0.111,0.242-0.244c0-0.135-0.109-0.245-0.242-0.245H53.215"/>
	<path clip-path="url(#SVGID_2_)" fill="#676767" d="M98.941,113.424c-0.134,0-0.243,0.111-0.243,0.245
		c0,0.135,0.109,0.243,0.243,0.243h2.285c0.135,0,0.244-0.108,0.244-0.243c0-0.134-0.109-0.245-0.244-0.245H98.941"/>
	<path clip-path="url(#SVGID_2_)" fill="#676767" d="M55.581,113.424c-0.137,0-0.246,0.111-0.246,0.245
		c0,0.135,0.109,0.243,0.246,0.243h37.196c0.134,0,0.243-0.108,0.243-0.243c0-0.134-0.109-0.245-0.243-0.245H55.581"/>
	<path clip-path="url(#SVGID_2_)" fill="#676767" d="M86.963,115.764c-0.134,0-0.244,0.111-0.244,0.247s0.11,0.245,0.244,0.245
		h6.204c0.134,0,0.244-0.109,0.244-0.245s-0.11-0.247-0.244-0.247H86.963"/>
	<path clip-path="url(#SVGID_2_)" fill="#676767" d="M64.385,115.764c-0.135,0-0.243,0.111-0.243,0.247s0.108,0.245,0.243,0.245
		h19.487c0.135,0,0.245-0.109,0.245-0.245s-0.11-0.247-0.245-0.247H64.385"/>
	<path clip-path="url(#SVGID_2_)" fill="#676767" d="M55.327,115.764c-0.135,0-0.245,0.111-0.245,0.247s0.11,0.245,0.245,0.245h5.59
		c0.136,0,0.245-0.109,0.245-0.245s-0.109-0.247-0.245-0.247H55.327"/>
	<path clip-path="url(#SVGID_2_)" fill="#676767" d="M88.399,118.109c-0.134,0-0.243,0.107-0.243,0.242s0.109,0.245,0.243,0.245
		h3.607c0.135,0,0.244-0.11,0.244-0.245s-0.109-0.242-0.244-0.242H88.399"/>
	<path clip-path="url(#SVGID_2_)" fill="#676767" d="M76.612,118.109c-0.135,0-0.245,0.107-0.245,0.242s0.11,0.245,0.245,0.245h5.85
		c0.134,0,0.244-0.11,0.244-0.245s-0.11-0.242-0.244-0.242H76.612"/>
	<path clip-path="url(#SVGID_2_)" fill="#676767" d="M65.826,118.109c-0.135,0-0.244,0.107-0.244,0.242s0.109,0.245,0.244,0.245
		h5.865c0.136,0,0.246-0.11,0.246-0.245s-0.11-0.242-0.246-0.242H65.826"/>
	<path clip-path="url(#SVGID_2_)" fill="#676767" d="M57.303,118.109c-0.135,0-0.245,0.107-0.245,0.242s0.11,0.245,0.245,0.245h2.39
		c0.136,0,0.244-0.11,0.244-0.245s-0.108-0.242-0.244-0.242H57.303"/>
	<path clip-path="url(#SVGID_2_)" fill="#676767" d="M77.281,120.45c-0.135,0-0.245,0.109-0.245,0.245
		c0,0.137,0.11,0.244,0.245,0.244h5.055c0.134,0,0.244-0.107,0.244-0.244c0-0.136-0.11-0.245-0.244-0.245H77.281"/>
	<path clip-path="url(#SVGID_2_)" fill="#676767" d="M65.8,120.45c-0.135,0-0.244,0.109-0.244,0.245
		c0,0.137,0.109,0.244,0.244,0.244h5.156c0.134,0,0.244-0.107,0.244-0.244c0-0.136-0.11-0.245-0.244-0.245H65.8"/>
	<path clip-path="url(#SVGID_2_)" fill="#676767" d="M87.965,46.247c5.221-8.05,9.888-15.247,13.293-20.5l-0.627-0.484
		L87.724,45.171L87.965,46.247 M83.703,51.372l-1.575,2.427l0.912,0.045c0.343-0.53,0.685-1.055,1.024-1.579L83.703,51.372z
		 M89.347,51.59l15.35-23.644l-0.8-0.504c-3.75,5.778-9.038,13.923-14.915,22.976L89.347,51.59z M78.306,61.143
		c0.465-0.714,0.928-1.428,1.389-2.14l-0.933-0.011l-1.297,2L78.306,61.143z M83.001,61.362l1.484-2.286l-1.102-0.035
		c-0.48,0.738-0.961,1.478-1.444,2.222L83.001,61.362z M65.716,80.563c0.434-0.671,0.871-1.344,1.31-2.021l-0.944,0.006
		l-0.911,1.405L65.716,80.563z M68.567,83.596l3.359-5.173l-1.114-0.018c-0.969,1.489-1.929,2.97-2.878,4.43L68.567,83.596z
		 M64.333,88.383c-10.493,16.163-18.699,28.802-18.848,29.033c-0.472-0.301-2.113-1.35-2.589-1.654
		c0.154-0.238,8.55-13.19,19.091-29.389l-0.462-0.738L41.8,115.999l4.071,2.557l19.112-29.44L64.333,88.383z M108.883,21.184
		l1.806-2.755l-3.904-2.657l-1.816,2.78l0.596,0.53l1.442-2.203l2.601,1.769l-1.402,2.129L108.883,21.184z"/>
	<path clip-path="url(#SVGID_2_)" fill="#676767" d="M96.773,13.354l-4.602,7.031l24.02,15.698l1.46-2.247l-2.707-9.198
		L97.011,12.995L96.773,13.354 M97.261,14.192c0.687,0.445,16.683,10.829,16.943,10.997c0.086,0.293,2.393,8.137,2.5,8.504
		c-0.133,0.199-0.447,0.668-0.69,1.034c-0.687-0.447-21.875-14.298-22.571-14.752C93.846,19.366,96.862,14.795,97.261,14.192z"/>
	<path clip-path="url(#SVGID_2_)" fill="#676767" d="M108.366,65.714l12.795-12.683H89.564l0.393,1.029c15.301,0,27.793,0,28.701,0
		c-0.547,0.544-5.271,5.226-11.436,11.338 M92.755,79.739c-2.388,2.367-4.713,4.672-6.859,6.799l0.644,0.813l7.404-7.341
		L92.755,79.739z M41.318,64.602c-5.754-5.718-10.082-10.023-10.604-10.542c0.881,0,12.698,0,27.401,0l0.182-1.029H28.215
		l11.976,11.906L41.318,64.602z M54.943,79.602l19.678,19.567l10.268-10.18l-0.552-0.905c-5.506,5.46-9.501,9.422-9.714,9.633
		c-0.313-0.312-8.843-8.794-18.306-18.201L54.943,79.602z M84.391,53.031H64.706l-0.394,1.029c6.591,0,13.51,0,20.12,0
		L84.391,53.031z"/>
	<path clip-path="url(#SVGID_2_)" fill="#676767" d="M101.047,63.877l5.144-5.121H91.07l0.245,1.03c6.749,0,11.702,0,12.381,0
		c-0.345,0.345-1.799,1.79-3.885,3.869L101.047,63.877 M84.534,78.867c-0.757,0.752-1.494,1.484-2.203,2.192l0.548,0.908l2.98-2.969
		L84.534,78.867z M48.976,62.976c-1.704-1.713-2.872-2.885-3.176-3.19c0.62,0,4.858,0,10.78,0l0.271-1.03h-13.53l4.409,4.429
		L48.976,62.976z M63.232,78.753L74.62,90.191l6.571-6.543l-0.556-0.901c-3.379,3.364-5.81,5.785-6.011,5.987
		c-0.277-0.278-4.719-4.737-10.041-10.082L63.232,78.753z M86.047,58.756H67.53l0.625,1.03c6.011,0,12.421,0,18.124,0L86.047,58.756
		z M64.176,58.756h-1.632l-0.271,1.03c0.862,0,1.742,0,2.636,0L64.176,58.756z"/>
	<path clip-path="url(#SVGID_2_)" fill="#676767" d="M64.436,54.512l1.819-5.496c0.421-1.031,0.777-1.728,1.806-2.426
		c0.721-0.585,2.433-0.919,2.433-0.919l4.058-11.641l-0.569-1.296c-1.98,5.685-4.159,11.945-4.232,12.154
		c-0.173,0.052-0.391,0.119-0.391,0.119c-0.696,0.21-1.08,0.323-1.739,0.788c-1.189,0.804-1.75,1.745-2.225,2.912
		c0,0-0.667,2.023-1.658,5.033L64.436,54.512 M62.852,56.429c-0.517,1.563-1.079,3.271-1.658,5.025l0.965-0.063l1.34-4.048
		L62.852,56.429z M55.223,79.575c-4.276,12.981-8.755,26.571-10.905,33.093l1.631-2.311L56.21,79.361L55.223,79.575z M60.086,48.247
		c4.322-16.6,8.729-33.532,8.773-33.698l-0.617-0.799L59.49,47.351L60.086,48.247z M58.728,50.277L55.67,62.012l0.854-0.084
		c0.885-3.395,1.837-7.055,2.808-10.786L58.728,50.277z M50.928,80.22l-9.458,36.308l2.173,0.789l0.167-0.502l-1.365-0.8
		c0.074-0.284,4.311-16.562,9.37-35.999L50.928,80.22z"/>
	<path clip-path="url(#SVGID_2_)" fill="#676767" d="M87.521,61.653l-4.313-13.438l0.017,0.08c-0.076-0.676-1.287-2.007-2.174-2.397
		c-0.663-0.406-1.956-0.664-3.367-0.906c-0.126-0.494-7.41-28.97-7.675-30.01l-0.971-0.536l7.989,31.258l0.26,0.044
		c1.029,0.173,2.75,0.461,3.363,0.852l0.027,0.018l0.032,0.013c0.714,0.305,1.668,1.447,1.708,1.754l0.005,0.037l0.012,0.042
		l4.231,13.178L87.521,61.653 M92.495,79.808l10.034,31.257l1.481,1.952c-1.643-5.118-6.164-19.199-10.573-32.935L92.495,79.808z
		 M92.508,62.317l-12.882-49.08l-0.638,0.774c0.041,0.16,7.491,28.547,12.642,48.17L92.508,62.317z M96.435,80.485
		c4.897,18.654,8.934,34.033,9.012,34.341c-0.3,0.074-0.506,0.129-0.792,0.197l-0.691,0.512l0.149,0.464l2.329-0.583l-9.093-34.651
		L96.435,80.485z M81.051,45.898c0.011,0.005,0.027,0.01,0.036,0.016l-0.059-0.03C81.036,45.886,81.044,45.893,81.051,45.898z"/>
	<path clip-path="url(#SVGID_2_)" fill="#676767" d="M80.044,78.504c12.758,18.914,24.164,35.82,24.354,36.103
		c-0.319,0.22-0.716,0.495-1.043,0.724c-0.197-0.294-11.943-17.669-24.941-36.896l-1.039,0.012l25.791,38.167l2.392-1.666
		L80.995,78.504H80.044 M45.503,25.844l-2.568,1.641l22.724,33.633h1.047c-0.472-0.699-22.609-33.446-22.772-33.686
		c0.351-0.226,0.818-0.525,1.158-0.743c0.157,0.233,22.713,33.671,23.178,34.359l0.925-0.052L45.503,25.844z"/>
	<path clip-path="url(#SVGID_2_)" fill="#676767" d="M34.595,23.872l2.348,3.373l2.999-1.981l-2.348-3.371L34.595,23.872
		 M37.67,22.759c0.318,0.455,1.018,1.574,1.321,2.007c-0.414,0.278-1.519,1.005-1.916,1.272c-0.293-0.419-1.065-1.522-1.37-1.957
		C36.119,23.804,37.271,23.026,37.67,22.759z"/>
	<path clip-path="url(#SVGID_2_)" fill="#676767" d="M34.911,18.823l6.91,10.306l5.334-3.703l-6.914-10.305L34.911,18.823
		 M40.032,16.228c0.402,0.598,5.548,8.265,5.937,8.844c-0.513,0.356-3.507,2.436-4.036,2.802c-0.365-0.547-5.404-8.018-5.942-8.84
		C36.499,18.681,39.503,16.595,40.032,16.228z"/>
	<path clip-path="url(#SVGID_2_)" fill="#676767" d="M66.419,9.296V9.3c0.013,2.012,0.801,3.893,2.223,5.296
		c1.398,1.383,3.321,2.187,5.278,2.176c1.982,0.011,3.847-0.752,5.247-2.147c1.407-1.403,2.179-3.278,2.171-5.277
		c0.013-4.054-3.39-7.436-7.493-7.471C69.772,1.912,66.444,5.242,66.419,9.296 M73.845,2.665c3.663,0.032,6.639,3.008,6.629,6.632
		c0.005,1.79-0.684,3.464-1.94,4.717c-1.251,1.248-2.917,1.927-4.691,1.916c-1.75,0.011-3.399-0.662-4.647-1.895
		c-1.27-1.254-1.976-2.936-1.988-4.738C67.232,5.673,70.209,2.697,73.845,2.665z"/>
	<path clip-path="url(#SVGID_2_)" fill="#676767" d="M70.583,9.297V9.3c0.005,0.906,0.357,1.746,0.993,2.364
		c0.615,0.596,1.481,0.983,2.334,0.962c0.847,0.021,1.662-0.301,2.277-0.903c0.63-0.619,0.975-1.456,0.97-2.357
		c0.01-1.752-1.505-3.285-3.307-3.325C72.05,6.081,70.593,7.542,70.583,9.297 M73.85,6.83c1.356,0.032,2.466,1.139,2.46,2.466
		c0.003,0.69-0.258,1.327-0.734,1.793c-0.461,0.453-1.074,0.695-1.726,0.678c-0.658,0.016-1.263-0.222-1.724-0.668
		c-0.482-0.47-0.749-1.109-0.753-1.802C71.381,7.969,72.491,6.861,73.85,6.83z"/>
	<path clip-path="url(#SVGID_2_)" fill="#676767" d="M70.979,9.041c-0.143,0-0.143,0.515,0,0.515h5.726c0.141,0,0.141-0.515,0-0.515
		H70.979"/>
	<path clip-path="url(#SVGID_2_)" fill="#676767" d="M49.218,41.741c-0.134,0-0.243,0.108-0.243,0.244
		c0,0.135,0.109,0.243,0.243,0.243h3.599c0.136,0,0.244-0.108,0.244-0.243c0-0.136-0.108-0.244-0.244-0.244H49.218"/>
	<path clip-path="url(#SVGID_2_)" fill="#676767" d="M42.179,41.741c-0.135,0-0.244,0.108-0.244,0.244
		c0,0.135,0.109,0.243,0.244,0.243h6.309c0.135,0,0.245-0.108,0.245-0.243c0-0.136-0.11-0.244-0.245-0.244H42.179"/>
	<path clip-path="url(#SVGID_2_)" fill="#676767" d="M57.416,43.541c-0.135,0-0.245,0.11-0.245,0.243
		c0,0.136,0.11,0.244,0.245,0.244h3.342c0.134,0,0.243-0.108,0.243-0.244c0-0.133-0.109-0.243-0.243-0.243H57.416"/>
	<path clip-path="url(#SVGID_2_)" fill="#676767" d="M43.935,46.295c-0.134,0-0.244,0.11-0.244,0.245
		c0,0.134,0.11,0.244,0.244,0.244h12.084c0.134,0,0.244-0.11,0.244-0.244c0-0.135-0.11-0.245-0.244-0.245H43.935"/>
	<path clip-path="url(#SVGID_2_)" fill="#676767" d="M90.244,101.711c-0.134,0-0.245,0.111-0.245,0.244
		c0,0.134,0.111,0.243,0.245,0.243h3.094c0.134,0,0.244-0.109,0.244-0.243c0-0.133-0.11-0.244-0.244-0.244H90.244"/>
	<path clip-path="url(#SVGID_2_)" fill="#676767" d="M95.414,41.741c-0.134,0-0.245,0.108-0.245,0.244
		c0,0.135,0.111,0.243,0.245,0.243h4.838c0.134,0,0.244-0.108,0.244-0.243c0-0.136-0.11-0.244-0.244-0.244H95.414"/>
	<path clip-path="url(#SVGID_2_)" fill="#676767" d="M92.115,60.854c-0.135,0-0.244,0.11-0.244,0.243
		c0,0.137,0.109,0.245,0.244,0.245h5.702c0.135,0,0.244-0.108,0.244-0.245c0-0.133-0.109-0.243-0.244-0.243H92.115"/>
	<path clip-path="url(#SVGID_2_)" fill="#676767" d="M50.408,60.854c-0.135,0-0.243,0.11-0.243,0.243
		c0,0.137,0.108,0.245,0.243,0.245h5.701c0.136,0,0.245-0.108,0.245-0.245c0-0.133-0.109-0.243-0.245-0.243H50.408"/>
	<path clip-path="url(#SVGID_2_)" fill="#676767" d="M87.278,43.541c-0.135,0-0.244,0.11-0.244,0.243
		c0,0.136,0.109,0.244,0.244,0.244h1.516c0.135,0,0.244-0.108,0.244-0.244c0-0.133-0.109-0.243-0.244-0.243H87.278"/>
	<polyline clip-path="url(#SVGID_2_)" fill="#676767" points="28.436,79.725 32.47,79.817 34.612,77.13 34.996,77.4 32.426,80.653 
		28.169,80.552 28.436,79.725 	"/>
	<polyline clip-path="url(#SVGID_2_)" fill="#676767" points="27.201,82.562 29.387,72.544 37.86,77.812 39.055,77.954 
		35.941,79.308 36.271,78.599 29.781,74.443 28.033,82.296 28.498,82.656 26.592,83.584 27.201,82.562 	"/>
	<polyline clip-path="url(#SVGID_2_)" fill="#676767" points="35.916,70.344 39.135,69.4 39.003,70.018 45.208,75.178 
		47.377,67.996 47.017,67.615 49.309,67.022 48.158,67.866 45.295,77.105 37.331,70.417 35.916,70.344 	"/>
	<polyline clip-path="url(#SVGID_2_)" fill="#676767" points="66.424,65.267 67.725,65.267 76.236,71.725 76.236,65.603 
		75.582,65.275 77.564,65.272 76.913,65.6 76.894,74.239 68.13,67.336 68.13,73.69 68.678,73.987 66.823,73.987 67.465,73.69 
		67.465,65.941 66.424,65.267 	"/>
	<polyline clip-path="url(#SVGID_2_)" fill="#676767" points="53.199,72.939 57.136,73.993 59.943,72.086 60.215,72.469 
		56.844,74.828 52.833,73.651 53.199,72.939 	"/>
	<polyline clip-path="url(#SVGID_2_)" fill="#676767" points="51.317,75.339 56.295,66.097 62.759,73.651 63.923,74.019 
		60.565,74.569 61.043,74.007 55.982,68.027 52.14,75.18 52.414,75.693 50.552,75.881 51.317,75.339 	"/>
	<polyline clip-path="url(#SVGID_2_)" fill="#676767" points="97.752,67.329 106.196,69.22 106.771,70.449 105.697,69.639 
		100.025,68.381 99.338,71.139 103.484,72.103 104.272,71.686 103.783,73.385 103.382,72.631 99.202,71.692 98.241,75.848 
		104.024,77.245 105.483,77.017 104.319,77.922 95.739,75.908 96.627,75.47 98.315,68.082 97.752,67.329 	"/>
	<path clip-path="url(#SVGID_2_)" fill="#676767" d="M92.014,73.927c-0.054-0.044-2.674,0.986-4.328,0.54
		c-2.266-0.636-4.357-2.211-4.078-4.528c0.217-2.478,2.267-3.982,5.348-3.566c1.415,0.192,2.544,0.486,3.641,1.464l0.343-0.634
		c0.049,0.062-1.964-1.086-3.941-1.365c-3.514-0.498-6.834,0.628-7.214,3.711c-0.491,3.114,2.283,5.232,5.857,5.544
		c1.147,0.099,2.496,0.134,4.555-0.65C92.675,74.324,92.014,73.927,92.014,73.927"/>
	<polyline clip-path="url(#SVGID_2_)" fill="#676767" points="112.782,71.418 120.691,74.84 110.747,79.484 116.576,82.016 
		118.203,82.05 116.816,82.74 107.967,78.966 118.117,74.281 112.912,72.067 111.267,71.896 112.782,71.418 	"/>
	<path clip-path="url(#SVGID_2_)" fill="#676767" d="M21.685,92.073c-0.128,0.127,0.099,0.817,0.227,0.691
		c8.765-8.653,28.002-14.046,51.079-14.071c27.664,0.03,46.22,7.964,51.756,15.321c0.108,0.145,0.341-0.466,0.234-0.612
		c-5.63-7.483-24.103-15.329-51.99-15.361C49.748,78.068,30.564,83.303,21.685,92.073"/>
	<path clip-path="url(#SVGID_2_)" fill="#676767" d="M19.146,74.781c-2.91,1.618-4.073,3.011-4.314,4.022
		c-0.025,0.104,0.394-0.142,0.419-0.248c0.206-0.86,1.358-1.954,4.103-3.444c6.424-3.49,23.083-12.779,53.915-12.73
		c20.107-0.032,37.837,4.166,54.096,12.938c2.186,1.186,3.724,2.182,4.479,3.393c0.056,0.091,0.403,0.176,0.346,0.086
		c-0.794-1.275-2.388-2.602-4.639-3.821c-16.318-8.805-34.109-13.016-54.282-12.987C42.335,61.943,25.565,71.213,19.146,74.781"/>
	<path clip-path="url(#SVGID_2_)" fill="#676767" d="M21.434,90.916l0.274,0.279c8.422-8.522,28.045-13.9,50.832-13.9
		c28.632,0,45.908,7.674,52.451,14.991l0.149-0.338c-6.598-7.378-23.842-15.043-52.6-15.043
		C49.656,76.905,29.926,82.326,21.434,90.916"/>
	<path clip-path="url(#SVGID_2_)" fill="#676767" d="M13.552,80.005c0.013,1.226,2.05,2.173,4.636,2.167
		c2.595,0.006,4.63-0.944,4.635-2.163c-0.005-1.174-1.994-2.104-4.63-2.165C15.557,77.905,13.566,78.835,13.552,80.005
		 M13.975,80.005c0.008-0.79,1.705-1.68,4.218-1.737c2.509,0.058,4.204,0.946,4.207,1.741c-0.004,0.949-1.932,1.748-4.212,1.739
		C15.914,81.757,13.984,80.958,13.975,80.005z"/>
	<path clip-path="url(#SVGID_2_)" fill="#676767" d="M18.05,79.015c-0.893-0.009-1.995,0.142-2.4,0.589l-0.15,0.428
		c-0.012,0.027-0.002,0.151,0.111,0.282c0.304,0.349,1.31,0.576,2.444,0.559c1.11,0.018,2.109-0.209,2.427-0.552
		c0,0,0.103-0.283,0.116-0.315c-0.013-0.035-0.157-0.406-0.157-0.406C20.024,79.155,18.933,79.006,18.05,79.015 M20.133,79.887
		l0.051,0.104c0,0,0,0.011,0.002,0.022c-0.072,0.159-0.883,0.456-2.131,0.435c-1.246,0.021-2.054-0.27-2.133-0.425
		c0.007-0.056,0.042-0.138,0.042-0.138c0.209-0.229,0.993-0.459,2.086-0.446C19.182,79.426,19.922,79.663,20.133,79.887z"/>
	<path clip-path="url(#SVGID_2_)" fill="#676767" d="M124.125,79.962c0.237,1.743,0.961,6.734,0.979,8.982
		c-0.022,2.873-0.899,9.007-0.907,9.068c-0.011,0.374,0.134,0.712,0.418,0.999c0.72,0.729,2.31,1.163,4.148,1.133
		c1.801,0.03,3.414-0.429,4.202-1.196c0.26-0.252,0.514-0.749,0.472-1.075c-0.068-0.696-0.496-5.682-0.502-8.931
		c0.02-3.43,0.503-8.977,0.505-8.988c0.066-0.491-0.136-2.982-3.262-4.891c-15.398-9.41-34.567-14.399-57.247-14.426
		c-24.047,0.027-44.603,5.572-57.402,15.179c-1.392,1.045-2.249,2.71-2.221,4.542c0.001,0.092,0.687,7.134,0.695,8.685
		c-0.005,3.224-0.534,8.129-0.623,8.86c-0.041,0.558,0.206,0.838,0.466,1.092c0.787,0.767,2.4,1.223,4.21,1.194
		c1.83,0.031,3.42-0.404,4.139-1.132c0.286-0.29,0.432-0.624,0.423-0.97c-0.012-0.093-0.89-6.224-0.911-9.103
		c0.017-2.246,0.789-6.615,1.028-8.358c0.119-0.874-0.294-1.161-0.254-1.017c0.28,1.017-0.385,1.379-0.385,1.379
		c-0.24,1.754-1.052,4.517-1.091,7.974c-0.033,2.921,0.906,9.091,0.914,9.152c0.003,0.166-0.04,0.223-0.221,0.408
		c-0.61,0.616-1.924,1.017-3.595,0.991c-1.653,0.025-3.154-0.383-3.832-1.044c-0.198-0.192-0.296-0.395-0.313-0.595
		c0.075-0.378,0.101-1.062,0.268-2.96c0.144-1.659,0.317-4.025,0.32-5.874c-0.01-1.565-0.627-8.675-0.626-8.729
		c0.034-1.391,0.684-3.107,1.932-4.043C28.54,66.744,49.02,61.204,72.928,61.176c22.556,0.026,41.678,5.025,56.973,14.371
		c2.802,1.713,3.034,3.972,2.987,4.404c-0.01,0.098-0.692,5.658-0.715,8.983c0.004,1.854,0.216,4.26,0.331,5.927
		c0.131,1.881,0.104,2.523,0.171,2.913c-0.011,0.21-0.113,0.416-0.32,0.615c-0.677,0.663-1.961,1.075-3.606,1.049
		c-1.68,0.026-3.152-0.354-3.762-0.97c-0.181-0.184-0.27-0.377-0.266-0.571c0.007-0.032,0.904-6.039,0.925-8.953
		c-0.016-2.29-0.578-6.397-0.817-8.152L124.125,79.962"/>
	<path clip-path="url(#SVGID_2_)" fill="#676767" d="M124.125,79.962L124.125,79.962c0.003,1.221,2.04,2.172,4.635,2.165
		c2.584,0.007,4.622-0.943,4.635-2.161c-0.013-1.178-2.004-2.105-4.63-2.166C126.12,77.86,124.128,78.789,124.125,79.962
		 M128.765,78.221c2.5,0.059,4.016,0.931,4.024,1.728c-0.01,0.945-1.756,1.763-4.029,1.755c-2.281,0.008-4.209-0.79-4.214-1.741
		C124.549,79.169,126.245,78.279,128.765,78.221z"/>
	<path clip-path="url(#SVGID_2_)" fill="#676767" d="M128.756,78.971c-0.877-0.01-1.969,0.14-2.386,0.581
		c0,0-0.143,0.373-0.158,0.406c0.014,0.033,0.118,0.314,0.118,0.314c0.317,0.347,1.318,0.572,2.433,0.552
		c1.127,0.021,2.133-0.209,2.438-0.558c0.112-0.129,0.121-0.253,0.109-0.336c0,0.055-0.149-0.372-0.149-0.372
		C130.756,79.111,129.653,78.961,128.756,78.971 M126.626,79.948l0.051-0.105c0.213-0.226,0.952-0.461,2.079-0.45
		c1.098-0.011,1.883,0.218,2.092,0.448l0.044,0.099c0,0.028,0,0.033,0.001,0.033c-0.069,0.159-0.882,0.451-2.13,0.43
		c-1.255,0.021-2.065-0.274-2.137-0.435C126.626,79.957,126.626,79.948,126.626,79.948z"/>
	<path clip-path="url(#SVGID_2_)" fill="#676767" d="M200.082,67.751c-2.333,1.776-6.292,2.993-9.793,2.993
		c-8.83,0-13.498-5.227-13.498-16.086c0-8.322,4.668-15.883,14.157-15.883c4.415,0,7.46,1.32,9.388,2.994l-2.639,3.501
		c-1.776-1.877-3.856-2.638-6.85-2.638c-6.292,0-9.54,4.719-9.54,11.874c0,8.322,3.349,12.381,9.489,12.381
		c2.386,0,4.973-0.862,7.256-2.384L200.082,67.751"/>
	<polyline clip-path="url(#SVGID_2_)" fill="#676767" points="227.665,39.232 227.665,70.288 223.3,70.288 223.3,56.079 
		209.042,56.586 209.042,70.288 204.678,70.288 204.678,39.232 209.042,39.232 209.042,52.831 223.3,52.222 223.3,39.232 
		227.665,39.232 	"/>
	<path clip-path="url(#SVGID_2_)" fill="#676767" d="M246.881,39.079l10.453,31.209h-4.667l-2.942-9.134l-11.471,0.659l-2.79,8.475
		h-4.415l11.164-31.005L246.881,39.079 M239.524,57.956l9.032-0.457l-4.313-13.852l-3.806,11.62L239.524,57.956z"/>
	<polyline clip-path="url(#SVGID_2_)" fill="#676767" points="260.469,39.232 264.834,39.232 264.834,66.43 278.077,66.43 
		278.077,70.288 260.469,70.288 260.469,39.232 	"/>
	<polyline clip-path="url(#SVGID_2_)" fill="#676767" points="308.145,52.577 308.297,46.742 306.116,52.73 299.062,70.288 
		295.409,70.642 287.999,52.933 285.87,47.097 286.022,52.933 286.022,70.288 281.86,70.288 281.86,39.283 286.528,39.079 
		295.51,60.342 297.288,65.314 299.012,60.24 307.741,39.079 312.307,39.283 312.307,70.288 308.145,70.288 308.145,52.577 	"/>
	<polyline clip-path="url(#SVGID_2_)" fill="#676767" points="335.083,39.232 335.083,43.037 321.227,43.037 321.227,52.628 
		332.749,52.121 332.749,55.926 321.227,56.384 321.227,66.43 335.895,66.43 335.895,70.288 316.864,70.288 316.864,39.232 
		335.083,39.232 	"/>
	<path clip-path="url(#SVGID_2_)" fill="#676767" d="M339.84,39.587c2.944-0.355,6.547-0.508,8.83-0.508
		c7.51,0,10.301,4.111,10.403,9.49c-0.103,4.008-1.826,6.799-5.533,8.626l7.31,13.093l-4.771,0.406l-6.545-12.077
		c-1.575,0.405-3.401,0.709-5.379,0.963v10.708h-4.315V39.587 M347.909,42.885c-1.067,0-2.233,0.051-3.754,0.203v12.534
		c6.849-0.355,10.401-2.283,10.401-6.596C354.557,45.169,352.426,42.885,347.909,42.885z"/>
	<path clip-path="url(#SVGID_2_)" fill="#676767" d="M377.061,62.422c0-2.943-3.25-4.77-6.243-6.597
		c-3.552-2.232-7.104-4.415-7.104-8.779c0-5.023,3.655-8.271,9.032-8.271c2.994,0,5.736,0.508,8.425,2.487l-2.486,3.399
		c-1.676-1.573-3.45-2.13-5.786-2.13c-2.892,0-4.72,1.471-4.72,3.907c0,2.486,2.59,4.11,5.228,5.784
		c3.856,2.334,8.172,4.668,8.172,9.895c0,5.581-4.873,8.627-10.403,8.627c-2.996,0-5.938-0.558-8.524-2.486l2.28-3.452
		c2.082,1.726,4.265,2.184,6.445,2.184C374.37,66.99,377.061,65.162,377.061,62.422"/>
	<path clip-path="url(#SVGID_2_)" fill="#676767" d="M188.225,102.053c0-2.943-3.248-4.771-6.241-6.597
		c-3.553-2.233-7.105-4.416-7.105-8.779c0-5.022,3.654-8.271,9.032-8.271c2.995,0,5.735,0.508,8.424,2.487l-2.486,3.398
		c-1.674-1.572-3.451-2.131-5.785-2.131c-2.893,0-4.72,1.473-4.72,3.908c0,2.486,2.588,4.109,5.227,5.783
		c3.857,2.334,8.17,4.668,8.17,9.896c0,5.582-4.871,8.627-10.403,8.627c-2.994,0-5.936-0.559-8.525-2.488l2.284-3.45
		c2.08,1.728,4.262,2.184,6.445,2.184C185.535,106.62,188.225,104.793,188.225,102.053"/>
	<polyline clip-path="url(#SVGID_2_)" fill="#676767" points="195.03,78.862 217.419,78.862 217.419,82.667 208.432,82.667 
		208.432,109.918 204.068,109.918 204.068,82.667 195.03,82.667 195.03,78.862 	"/>
	<path clip-path="url(#SVGID_2_)" fill="#676767" d="M240.477,78.862h4.211v20.856c0,8.625-7.104,10.656-11.977,10.656
		c-4.464,0-11.467-1.522-11.467-10.251V78.862h4.313v19.84c0,6.802,3.196,7.814,7.562,7.814c4.463,0,7.356-1.877,7.356-8.118V78.862
		"/>
	<path clip-path="url(#SVGID_2_)" fill="#676767" d="M249.213,79.065c2.995-0.102,5.887-0.254,8.983-0.254
		c11.112,0,15.631,5.581,15.631,14.817c0,9.235-3.553,16.289-15.58,16.289h-9.034V79.065 M253.579,82.82v23.24h4.871
		c8.373,0,10.858-4.719,10.858-11.822c0-8.88-4.108-11.621-11.569-11.621C256.268,82.617,254.999,82.719,253.579,82.82z"/>
	<polyline clip-path="url(#SVGID_2_)" fill="#676767" points="295.379,78.862 295.379,82.667 281.526,82.667 281.526,92.259 
		293.045,91.751 293.045,95.556 281.526,96.013 281.526,106.061 296.19,106.061 296.19,109.918 277.161,109.918 277.161,78.862 
		295.379,78.862 	"/>
	<polyline clip-path="url(#SVGID_2_)" fill="#676767" points="304.352,109.918 300.139,109.918 300.139,78.913 304.403,78.71 
		317.19,97.942 320.385,103.473 320.184,97.688 320.184,78.862 324.395,78.862 324.395,109.867 320.284,110.172 307.499,90.99 
		304.047,85.307 304.352,91.141 304.352,109.918 	"/>
	<polyline clip-path="url(#SVGID_2_)" fill="#676767" points="328.577,78.862 351.295,78.862 351.295,82.667 342.143,82.667 
		342.143,109.918 337.78,109.918 337.78,82.667 328.577,82.667 328.577,78.862 	"/>
	<path clip-path="url(#SVGID_2_)" fill="#676767" d="M355.454,78.862h4.363v31.056h-4.363V78.862z M364.704,93.985l11.371,15.933
		l-4.823,0.508l-11.316-15.885l10.759-15.679h4.871L364.704,93.985z"/>
	<path clip-path="url(#SVGID_2_)" fill="#676767" d="M394.014,78.71l10.451,31.208h-4.668l-2.94-9.134l-11.464,0.659l-2.791,8.475
		h-4.418l11.164-31.005L394.014,78.71 M386.661,97.587l9.026-0.457l-4.312-13.852l-3.8,11.619L386.661,97.587z M387.067,73.126
		c0-2.689,2.131-4.515,4.661-4.515c2.589,0,4.519,1.725,4.519,4.515c0,2.539-2.032,4.568-4.62,4.568
		C389.094,77.694,387.067,75.867,387.067,73.126z M394.065,73.126c0-1.673-0.966-2.637-2.438-2.637
		c-1.519,0-2.482,0.964-2.482,2.637c0,1.777,1.064,2.69,2.482,2.69C393.151,75.816,394.065,74.853,394.065,73.126z"/>
	<path clip-path="url(#SVGID_2_)" fill="#676767" d="M407.579,79.217c2.943-0.354,6.546-0.507,8.828-0.507
		c7.51,0,10.301,4.11,10.401,9.488c-0.101,4.009-1.825,6.801-5.528,8.627l7.304,13.093l-4.767,0.406l-6.545-12.078
		c-1.574,0.406-3.4,0.712-5.38,0.964v10.708h-4.313V79.217 M415.647,82.515c-1.064,0-2.232,0.052-3.755,0.204v12.534
		c6.851-0.355,10.4-2.285,10.4-6.596C422.293,84.799,420.163,82.515,415.647,82.515z"/>
</g>
</svg>
