<?xml version="1.0" encoding="UTF-8" standalone="no"?>
<svg
   xmlns:dc="http://purl.org/dc/elements/1.1/"
   xmlns:cc="http://creativecommons.org/ns#"
   xmlns:rdf="http://www.w3.org/1999/02/22-rdf-syntax-ns#"
   xmlns:svg="http://www.w3.org/2000/svg"
   xmlns="http://www.w3.org/2000/svg"
   version="1.1"
   id="Layer_1"
   x="0px"
   y="0px"
   width="453.543px"
   height="453.543px"
   viewBox="0 0 453.543 453.543"
   enable-background="new 0 0 453.543 453.543"
   xml:space="preserve"><metadata
   id="metadata22"><rdf:RDF><cc:Work
       rdf:about=""><dc:format>image/svg+xml</dc:format><dc:type
         rdf:resource="http://purl.org/dc/dcmitype/StillImage" /><dc:title></dc:title></cc:Work></rdf:RDF></metadata><defs
   id="defs20">
	
	
	
	
	
	
	
</defs>
<path
   id="rect879"
   d="M 221.61523 30.9375 C 216.75939 30.945288 211.83205 31.224453 206.86133 31.783203 C 115.71133 42.033203 83.451402 182.5232 134.69141 265.7832 C 134.85141 244.0022 135.04195 220.19242 122.25195 205.98242 C 106.33195 120.90242 177.24125 54.071642 224.28125 120.18164 C 244.60225 112.54264 256.40148 85.682812 281.52148 86.382812 C 295.34148 86.762812 302.91133 101.00281 316.36133 99.382812 C 308.78598 56.145627 268.55507 30.86221 221.61523 30.9375 z M 279.08789 94.597656 C 259.22547 94.440396 240.16445 104.90937 241.70117 120.18359 C 264.37017 105.42359 302.64156 111.93359 318.85156 120.18359 C 312.55313 102.15375 295.54532 94.727946 279.08789 94.597656 z M 175.68164 99.443359 C 160.69184 99.143829 146.53359 104.29766 142.16016 117.58203 C 162.56116 106.65203 196.41131 117.53203 216.82031 117.58203 C 210.72688 107.12703 192.67008 99.782829 175.68164 99.443359 z M 278.46289 125.12305 C 269.35367 125.20155 260.39641 127.01109 254.15234 130.58203 C 252.29134 138.58203 260.98109 135.58203 259.12109 143.58203 C 276.75209 141.20203 296.13281 140.6432 311.38281 135.7832 C 305.41503 128.59289 291.77636 125.00831 278.46289 125.12305 z M 161.36328 126.29492 C 153.13681 126.36308 146.05391 128.5732 142.16016 135.7832 C 161.58116 134.5532 174.40141 140.23203 189.44141 143.58203 C 187.59141 135.58203 196.27187 138.58203 194.42188 130.58203 C 184.40937 129.65953 171.94017 126.20732 161.36328 126.29492 z M 223.35742 139.50195 C 211.22411 139.25251 198.61131 147.51914 189.44141 161.7832 C 173.57141 151.5332 150.18094 142.28281 129.71094 151.38281 C 131.52094 170.60281 123.50023 179.55359 124.74023 198.18359 C 149.41023 218.25359 128.03039 262.85259 144.65039 289.18359 C 149.10039 296.25359 163.45195 310.06437 177.00195 309.98438 C 188.85195 309.91437 203.16102 288.52398 221.79102 286.58398 C 244.84102 284.18398 268.04195 312.76436 286.50195 309.98438 C 313.69195 305.89337 321.62088 252.26281 303.92188 229.38281 C 317.11088 207.60281 338.2118 183.09281 321.3418 151.38281 C 297.3118 137.68281 277.56116 161.4432 251.66016 161.7832 C 244.39453 146.57227 234.06329 139.72205 223.35742 139.50195 z M 226.39258 172.57617 C 240.70883 172.73742 255.15109 177.9682 259.12109 187.7832 C 242.47209 208.3232 208.86187 215.6632 194.42188 187.7832 C 197.88687 177.3232 212.07633 172.41492 226.39258 172.57617 z M 225.88281 223.38477 C 245.18795 223.3804 264.08867 229.05156 266.5918 242.38281 C 250.3818 222.08281 198.60266 222.22281 181.97266 242.38281 C 181.60609 230.68469 204.00366 223.38977 225.88281 223.38477 z M 214.94141 241.72266 C 226.27275 241.86148 239.47438 243.95219 249.17188 242.38281 C 237.77186 262.91281 214.39287 258.85203 194.42188 247.58203 C 198.44688 242.68641 206.12814 241.61468 214.94141 241.72266 z M 132.20117 270.98438 C 125.92117 310.37437 140.09164 337.50398 137.18164 364.58398 C 131.86164 413.96398 71.860859 420.41359 37.630859 445.18359 C 30.53318 444.45282 41.673781 451.32064 36.941406 452.73633 L 77.451172 452.98242 C 104.57236 457.08061 149.25898 443.69101 181.30469 443.91602 C 195.87092 444.01829 207.82578 446.93234 214.33203 455.58203 L 229.26172 452.98438 C 213.23172 424.66437 191.59266 402.20459 181.97266 367.18359 C 201.18266 383.88359 228.04148 402.28459 226.77148 432.18359 C 237.54148 434.80359 238.46016 447.7032 251.66016 447.7832 L 286.50195 452.98242 C 295.21383 450.5643 304.13788 449.70068 312.99414 449.67578 C 318.3079 449.66083 323.59773 449.94781 328.80273 450.38281 C 335.54332 450.94871 349.87875 452.22985 349.0957 453.69922 L 425.86133 471.18359 C 383.55133 433.92359 318.02078 420.91281 274.05078 385.38281 C 262.80078 383.27381 259.31116 402.7632 251.66016 395.7832 C 255.86016 390.6422 254.36986 379.55281 256.63086 372.38281 C 212.21086 341.66281 141.37117 338.53337 132.20117 270.98438 z "
   style="color:#000000;overflow:visible;opacity:1;vector-effect:none;fill:#999999;fill-opacity:1;stroke:none;stroke-width:1;stroke-linecap:butt;stroke-linejoin:miter;stroke-miterlimit:4;stroke-dasharray:none;stroke-dashoffset:0;stroke-opacity:1;font-variant-east_asian:normal" />
</svg>