<?xml version="1.0" encoding="utf-8"?>
<!-- Generator: Adobe Illustrator 15.0.0, SVG Export Plug-In . SVG Version: 6.00 Build 0)  -->
<!DOCTYPE svg PUBLIC "-//W3C//DTD SVG 1.1//EN" "http://www.w3.org/Graphics/SVG/1.1/DTD/svg11.dtd">
<svg version="1.1" id="Layer_1" xmlns="http://www.w3.org/2000/svg" xmlns:xlink="http://www.w3.org/1999/xlink" x="0px" y="0px"
	 width="453.543px" height="453.543px" viewBox="0 0 453.543 453.543" enable-background="new 0 0 453.543 453.543"
	 xml:space="preserve">
<g id="XMLID_2_">
	<path d="M445.771,430.383c0,1.73,0,3.47,0,5.2c-7.6-1.88-9.07,2.66-14.93,2.6c-5.92-1.529,7.09,15.53-4.98,13
		c-42.31-37.26-107.84-50.27-151.81-85.8c-11.25-2.109-14.74,17.38-22.391,10.4c4.2-5.141,2.71-16.23,4.971-23.4
		c-44.42-30.72-115.26-33.85-124.43-101.399c-6.28,39.39,7.89,66.52,4.98,93.6c-5.32,49.38-65.32,55.83-99.55,80.6
		c-7.77-0.8,6.33,7.511-2.48,7.801c-2.59-0.801-16.32,3.38-27.38,0c0-2.601,0-5.2,0-7.801c30.5-0.859,49.41-12.05,72.17-26
		c18.59-11.39,42.6-28.359,47.28-49.399c4.03-18.08,2.05-79.79-2.48-109.201c-4.76-30.83-22.53-51.22-24.89-78
		c-8.24-93.48,81.68-200.28,189.14-145.6c63.12,32.12,65.141,135.64,49.771,213.2c-4.88,24.601-19.5,92.24-9.96,124.801
		C336.821,382.324,401.991,434.463,445.771,430.383z M303.922,209.383c13.189-21.78,34.29-46.29,17.42-78
		c-24.03-13.7-43.78,10.06-69.681,10.4c-15.5-32.45-44.959-26.85-62.22,0c-15.87-10.25-39.26-19.5-59.73-10.4
		c1.81,19.22-6.21,28.17-4.97,46.8c24.67,20.07,3.29,64.669,19.91,91c4.45,7.07,18.8,20.881,32.35,20.801
		c11.85-0.07,26.16-21.46,44.79-23.4c23.05-2.4,46.25,26.18,64.71,23.4C313.691,285.893,321.621,232.263,303.922,209.383z
		 M281.521,66.383c13.82,0.38,21.39,14.62,34.84,13c-8.359-47.71-56.479-73.56-109.5-67.6c-91.15,10.25-123.41,150.74-72.17,234
		c0.16-21.781,0.35-45.591-12.44-59.801c-15.92-85.08,54.99-151.91,102.03-85.8C244.602,92.543,256.401,65.683,281.521,66.383z
		 M259.121,123.583c17.631-2.38,37.011-2.94,52.261-7.8c-10.051-12.11-41.86-13.99-57.23-5.2
		C252.291,118.583,260.981,115.583,259.121,123.583z M318.852,100.183c-13.9-39.79-79.96-27.93-77.15,0
		C264.371,85.423,302.642,91.933,318.852,100.183z M189.441,123.583c-1.85-8,6.83-5,4.98-13c-17.8-1.64-43.36-11.28-52.26,5.2
		C161.582,114.553,174.401,120.233,189.441,123.583z M216.821,97.583c-11.47-19.68-65.33-28.34-74.66,0
		C162.562,86.653,196.412,97.533,216.821,97.583z"/>
	<path d="M328.802,430.383c9.529,0.8,34.279,3.03,9.96,5.2c-9.59,0.86-28.07-0.61-44.8,0c-0.4-3.05-4.53-2.19-7.46-2.6
		C300.441,429.114,314.922,429.223,328.802,430.383z"/>
	<path d="M194.421,227.583c9.2-11.19,37.51-2.41,54.75-5.2C237.771,242.913,214.392,238.853,194.421,227.583z"/>
	<path d="M226.771,412.183c10.77,2.62,11.69,15.521,24.89,15.601c-2.76,6.66-13.37,5.109-22.399,5.2
		c-16.03-28.32-37.67-50.78-47.29-85.801C201.182,363.883,228.041,382.284,226.771,412.183z"/>
	<path d="M194.421,167.783c6.93-20.92,56.76-19.63,64.7,0C242.472,188.323,208.861,195.663,194.421,167.783z"/>
	<path d="M181.972,222.383c-0.69-22.02,79.28-28.44,84.62,0C250.382,202.083,198.602,202.223,181.972,222.383z"/>
	<path d="M214.332,435.583c-11.64,12.77-21.59-6.78-37.33-7.8c-27.78-1.8-65.92,18.649-99.55,5.2
		C116.901,438.944,193.512,407.904,214.332,435.583z"/>
</g>
</svg>
