<?xml version="1.0" encoding="utf-8"?>
<!-- Generator: Adobe Illustrator 15.0.0, SVG Export Plug-In . SVG Version: 6.00 Build 0)  -->
<!DOCTYPE svg PUBLIC "-//W3C//DTD SVG 1.1//EN" "http://www.w3.org/Graphics/SVG/1.1/DTD/svg11.dtd">
<svg version="1.1" id="Layer_1" xmlns="http://www.w3.org/2000/svg" xmlns:xlink="http://www.w3.org/1999/xlink" x="0px" y="0px"
	 width="468px" height="463px" viewBox="0 0 468 463" enable-background="new 0 0 468 463" xml:space="preserve">
<g>
	<defs>
		<rect id="SVGID_1_" x="-28" y="-35" width="533" height="533"/>
	</defs>
	<clipPath id="SVGID_2_">
		<use xlink:href="#SVGID_1_"  overflow="visible"/>
	</clipPath>
	<path clip-path="url(#SVGID_2_)" fill-rule="evenodd" clip-rule="evenodd" fill="#0A0C06" d="M250.244,371.338v14.063H134.227
		v-14.063h31.641V111.179h-31.641V97.116h10.547c0,0,49.219,14.063,70.313,49.22v84.375h15.821v14.063h-15.821v126.563H250.244z"/>
	<path clip-path="url(#SVGID_2_)" fill="none" stroke="#0A0C06" stroke-width="0.352" stroke-miterlimit="10" d="M250.244,371.338
		v14.063H134.227v-14.063h31.641V111.179h-31.641V97.116h10.547c0,0,49.219,14.063,70.313,49.22v84.375h15.821v14.063h-15.821
		v126.563H250.244z"/>
	<path clip-path="url(#SVGID_2_)" fill="none" stroke="#0A0C06" stroke-width="0.352" stroke-miterlimit="10" d="M243.212,385.401
		L243.212,385.401z"/>
	<path clip-path="url(#SVGID_2_)" fill-rule="evenodd" clip-rule="evenodd" fill="#0A0C06" d="M237.939,230.711v14.063
		c0,0,22.852,3.516,26.367,14.062c3.517,10.547,3.517,35.157,3.517,35.157h14.062V181.492h-14.062c0,0,0.102,20.687-3.517,35.157
		C260.791,230.711,237.939,230.712,237.939,230.711"/>
	<path clip-path="url(#SVGID_2_)" fill="none" stroke="#0A0C06" stroke-width="0.352" stroke-miterlimit="10" d="M237.939,230.711
		v14.063c0,0,22.852,3.516,26.367,14.062c3.517,10.547,3.517,35.157,3.517,35.157h14.062V181.492h-14.062
		c0,0,0.102,20.687-3.517,35.157C260.791,230.711,237.939,230.711,237.939,230.711z"/>
	<path clip-path="url(#SVGID_2_)" fill-rule="evenodd" clip-rule="evenodd" fill="#0A0C06" d="M320.557,142.117h21.095v42.891
		h-10.548c0,0,0-28.125-10.547-38.672V142.117z"/>
	<path clip-path="url(#SVGID_2_)" fill="none" stroke="#0A0C06" stroke-width="0.352" stroke-miterlimit="10" d="M320.557,142.117
		h21.095v42.891h-10.548c0,0,0-28.125-10.547-38.672V142.117z"/>
	<path clip-path="url(#SVGID_2_)" fill-rule="evenodd" clip-rule="evenodd" fill="#0A0C06" d="M295.947,93.601
		c0,0,45.704-14.063,49.22,3.516c3.515,17.578-66.798,45.703-80.861,38.672l-3.515,3.515c0,0,52.734,0.001,80.86,0.001
		c28.125-0.001,7.03-14.063,7.03-17.579s4.896-6.546,3.517-17.578C348.682,76.022,295.947,93.601,295.947,93.601"/>
	<path clip-path="url(#SVGID_2_)" fill="none" stroke="#0A0C06" stroke-width="1.758" stroke-miterlimit="10" d="M295.947,93.601
		c0,0,45.704-14.063,49.22,3.516c3.515,17.578-66.798,45.703-80.861,38.672l-3.515,3.515c0,0,52.734,0.001,80.86,0.001
		c28.125-0.001,7.03-14.063,7.03-17.579s4.896-6.546,3.517-17.578C348.682,76.022,295.947,93.601,295.947,93.601"/>
	
		<path clip-path="url(#SVGID_2_)" fill="none" stroke="#0A0C06" stroke-width="1.758" stroke-linecap="round" stroke-miterlimit="10" d="
		M246.728,97.116c0,0,31.642-17.578,45.703-17.578c14.063,0,21.266,10.205,21.266,10.205 M204.54,79.538
		c0,0,17.578-7.031,31.641-3.515c14.063,3.515,29.322,11.572,29.322,11.572 M278.369,111.179c0,0-16.769,37.295-42.188,45.704
		c-10.467,3.463-22.558-19.241-30.649-27.225c-3.646-3.598-11.749-10.454-14.746-12.949c-15.104-12.571-35.465-26.624-35.465-26.624
		c-4.064-2.339-3.516-17.578,3.515-17.578c7.032,0,7.75,2.18,12.12,4.231 M166.788,74.341c6.8-4.124,12.63-3.812,26.692-3.812
		c14.063,0,19.117,6.177,19.117,6.177"/>
	<path clip-path="url(#SVGID_2_)" fill-rule="evenodd" clip-rule="evenodd" fill="#0A0C06" d="M153.563,88.327
		c0,0-8.521,7.358-5.957,7.972c9.131,2.184,20.922,8.133,36.658,17.492c9.314,5.54,18.562,13.067,18.562,13.067
		s-10.856-10.639-31.297-24.684C156.613,91.925,153.915,88.327,153.563,88.327z"/>
	<path clip-path="url(#SVGID_2_)" fill="none" stroke="#0A0C06" stroke-width="0.352" stroke-miterlimit="10" d="M153.563,88.327
		c0,0-8.521,7.358-5.957,7.972c9.131,2.184,20.922,8.133,36.658,17.492c9.314,5.54,18.562,13.067,18.562,13.067
		s-10.856-10.639-31.297-24.684C156.613,91.925,153.915,88.327,153.563,88.327z"/>
	<path clip-path="url(#SVGID_2_)" fill-rule="evenodd" clip-rule="evenodd" fill="#0A0C06" d="M239.697,193.797
		c0,2.911-2.363,5.274-5.274,5.274c-2.911,0-5.273-2.363-5.273-5.274s2.362-5.273,5.273-5.273
		C237.334,188.524,239.697,190.886,239.697,193.797"/>
	
		<circle clip-path="url(#SVGID_2_)" fill="none" stroke="#0A0C06" stroke-width="1.758" stroke-linecap="round" stroke-miterlimit="10" cx="234.424" cy="193.797" r="5.274"/>
	<path clip-path="url(#SVGID_2_)" fill-rule="evenodd" clip-rule="evenodd" fill="#0A0C06" d="M239.697,211.375
		c0,2.912-2.363,5.274-5.274,5.274c-2.911,0-5.273-2.362-5.273-5.274c0-2.911,2.362-5.273,5.273-5.273
		C237.334,206.102,239.697,208.465,239.697,211.375"/>
	
		<circle clip-path="url(#SVGID_2_)" fill="none" stroke="#0A0C06" stroke-width="1.758" stroke-linecap="round" stroke-miterlimit="10" cx="234.424" cy="211.375" r="5.274"/>
	
		<line clip-path="url(#SVGID_2_)" fill="none" stroke="#0A0C06" stroke-width="3.484" stroke-linecap="round" stroke-miterlimit="10" x1="234.423" y1="158.672" x2="234.423" y2="253.596"/>
	<path clip-path="url(#SVGID_2_)" fill-rule="evenodd" clip-rule="evenodd" fill="#0A0C06" d="M239.697,257.079
		c0,2.911-2.363,5.273-5.274,5.273c-2.911-0.001-5.273-2.362-5.273-5.273s2.362-5.273,5.273-5.273
		C237.334,251.805,239.697,254.168,239.697,257.079"/>
	
		<circle clip-path="url(#SVGID_2_)" fill="none" stroke="#0A0C06" stroke-width="3.516" stroke-linecap="round" stroke-miterlimit="10" cx="234.424" cy="257.079" r="5.274"/>
	<path clip-path="url(#SVGID_2_)" fill-rule="evenodd" clip-rule="evenodd" fill="#0A0C06" d="M229.15,255.321
		c0,0-3.516,15.82-3.516,21.094c0,3.516,0,42.188,0,45.704c0,3.516-1.758,40.43,0,42.188c1.758,1.759,17.578,1.759,19.336,0
		c1.758-1.758,0-43.945,0-56.251c0-7.86-1.758-28.125-1.758-35.155c0-1.759-3.515-17.579-3.515-17.579H229.15"/>
	
		<path clip-path="url(#SVGID_2_)" fill="none" stroke="#0A0C06" stroke-width="1.758" stroke-linecap="round" stroke-miterlimit="10" d="
		M229.15,255.321c0,0-3.516,15.82-3.516,21.094c0,3.516,0,42.188,0,45.704c0,3.516-1.758,40.43,0,42.188
		c1.758,1.759,17.578,1.759,19.336,0c1.758-1.758,0-43.945,0-56.251c0-7.86-1.758-28.125-1.758-35.155
		c0-1.759-3.515-17.579-3.515-17.579H229.15z"/>
	<polyline clip-path="url(#SVGID_2_)" fill-rule="evenodd" clip-rule="evenodd" fill="#0A0C06" points="20.044,311.099 
		10.731,284.84 18.491,282.298 24.021,297.89 30.327,295.824 25.604,282.507 32.896,280.119 37.619,293.436 52.376,288.603 
		56.159,299.271 20.044,311.099 	"/>
	<polyline clip-path="url(#SVGID_2_)" fill-rule="evenodd" clip-rule="evenodd" fill="#0A0C06" points="11.373,282.19 
		9.352,269.879 20.878,260.667 6.973,255.39 4.964,243.153 29.14,253.715 44.913,251.274 46.737,262.386 30.965,264.827 
		11.373,282.19 	"/>
	<path clip-path="url(#SVGID_2_)" fill-rule="evenodd" clip-rule="evenodd" fill="#0A0C06" d="M30.857,243.514l-0.554-10.69
		c1.823-0.219,3.216-0.681,4.179-1.385c1.558-1.146,2.352-2.794,2.382-4.943c0.022-1.603-0.351-2.837-1.119-3.702
		c-0.785-0.882-1.698-1.326-2.738-1.334c-0.988-0.006-1.877,0.401-2.669,1.222c-0.791,0.821-1.554,2.734-2.289,5.737
		c-1.229,4.918-2.82,8.42-4.773,10.506c-1.953,2.103-4.42,3.145-7.401,3.123c-1.958-0.013-3.797-0.562-5.515-1.649
		c-1.736-1.104-3.083-2.74-4.041-4.913c-0.975-2.188-1.437-5.176-1.384-8.961c0.064-4.645,1.022-8.176,2.876-10.593
		c1.836-2.434,4.733-3.869,8.691-4.305l0.504,10.592c-1.72,0.269-2.976,0.856-3.768,1.76c-0.792,0.887-1.199,2.124-1.221,3.711
		c-0.018,1.305,0.263,2.291,0.843,2.956c0.563,0.666,1.26,1.001,2.092,1.007c0.607,0.004,1.157-0.265,1.649-0.807
		c0.51-0.526,0.996-1.779,1.456-3.759c1.177-4.902,2.352-8.407,3.525-10.515c1.156-2.125,2.581-3.66,4.276-4.607
		c1.694-0.964,3.582-1.439,5.661-1.425c2.444,0.017,4.689,0.678,6.733,1.981c2.045,1.303,3.589,3.116,4.632,5.438
		c1.025,2.321,1.513,5.242,1.465,8.763c-0.085,6.182-1.392,10.455-3.921,12.818C37.9,241.901,34.709,243.227,30.857,243.514"/>
	<polyline clip-path="url(#SVGID_2_)" fill-rule="evenodd" clip-rule="evenodd" fill="#0A0C06" points="8.052,203.168 9.74,192.017 
		47.465,197.003 45.777,208.153 8.052,203.168 	"/>
	<polyline clip-path="url(#SVGID_2_)" fill-rule="evenodd" clip-rule="evenodd" fill="#0A0C06" points="11.145,183.289 
		14.481,172.497 28.295,176.309 17.977,161.182 22.41,146.841 32.268,163.367 59.143,156.357 55.035,169.649 37.723,172.861 
		42.11,180.121 51.037,182.584 47.702,193.375 11.145,183.289 	"/>
	<polyline clip-path="url(#SVGID_2_)" fill-rule="evenodd" clip-rule="evenodd" fill="#0A0C06" points="23.516,144.512 
		39.518,113.88 47.938,117.844 42.569,128.122 68.247,140.212 62.983,150.289 37.305,138.199 31.936,148.477 23.516,144.512 	"/>
	<polyline clip-path="url(#SVGID_2_)" fill-rule="evenodd" clip-rule="evenodd" fill="#0A0C06" points="41.913,110.323 
		60.236,85.711 66.863,90.179 55.392,105.587 60.324,108.913 70.965,94.62 77.295,98.888 66.654,113.181 72.773,117.307 
		84.576,101.452 91.605,106.192 72.949,131.251 41.913,110.323 	"/>
	<polyline clip-path="url(#SVGID_2_)" fill-rule="evenodd" clip-rule="evenodd" fill="#0A0C06" points="67.206,77.723 75.835,70.03 
		85.638,80.039 84.884,61.964 96.352,51.74 95.965,70.8 122.751,77.819 112.121,87.295 95.564,81.648 95.442,90.048 101.777,96.517 
		93.147,104.209 67.206,77.723 	"/>
	<polyline clip-path="url(#SVGID_2_)" fill-rule="evenodd" clip-rule="evenodd" fill="#0A0C06" points="105.278,45.615 
		114.684,40.127 137.886,50.103 126.959,32.966 136.455,27.427 156.206,58.405 146.71,63.944 123.656,54.056 134.502,71.067 
		125.028,76.593 105.278,45.615 	"/>
	<path clip-path="url(#SVGID_2_)" fill-rule="evenodd" clip-rule="evenodd" fill="#0A0C06" d="M160.498,36.344
		c1.104,3.51,2.578,5.833,4.422,6.97c1.86,1.131,3.97,1.354,6.328,0.668c2.424-0.706,4.064-2.004,4.92-3.892
		c0.856-1.889,0.672-4.777-0.551-8.666c-1.029-3.272-2.478-5.456-4.345-6.551c-1.856-1.117-3.971-1.328-6.345-0.637
		c-2.275,0.662-3.861,1.961-4.756,3.896C159.275,30.066,159.384,32.804,160.498,36.344 M149.2,39.583
		c-1.786-5.675-1.515-10.576,0.811-14.704c2.327-4.129,6.454-7.057,12.382-8.783c6.077-1.77,11.25-1.577,15.517,0.58
		c4.263,2.14,7.274,6.009,9.035,11.604c1.278,4.063,1.605,7.609,0.981,10.637c-0.613,3.009-2.052,5.636-4.318,7.884
		c-2.254,2.226-5.407,3.93-9.458,5.11c-4.118,1.199-7.727,1.569-10.826,1.108c-3.083-0.466-5.889-1.805-8.416-4.02
		C152.381,46.784,150.478,43.646,149.2,39.583z"/>
	<polyline clip-path="url(#SVGID_2_)" fill-rule="evenodd" clip-rule="evenodd" fill="#0A0C06" points="187.927,10.32 
		199.562,8.513 204.017,35.555 222.177,32.734 223.633,41.569 193.837,46.197 187.927,10.32 	"/>
	<path clip-path="url(#SVGID_2_)" fill-rule="evenodd" clip-rule="evenodd" fill="#0A0C06" d="M236.095,23.161
		c-0.126,3.668,0.494,6.322,1.86,7.961c1.383,1.64,3.304,2.491,5.764,2.554c2.53,0.065,4.515-0.67,5.954-2.204
		c1.44-1.535,2.229-4.335,2.369-8.4c0.117-3.42-0.525-5.934-1.927-7.541c-1.383-1.623-3.314-2.466-5.791-2.529
		c-2.373-0.061-4.308,0.692-5.8,2.258C237.032,16.826,236.222,19.459,236.095,23.161 M224.325,22.811
		c0.203-5.933,2.094-10.507,5.672-13.723c3.578-3.217,8.459-4.746,14.644-4.588c6.342,0.162,11.172,1.915,14.489,5.258
		c3.32,3.326,4.879,7.914,4.679,13.764c-0.146,4.247-1.019,7.714-2.619,10.402c-1.582,2.672-3.821,4.732-6.715,6.179
		c-2.875,1.432-6.427,2.094-10.653,1.986c-4.296-0.111-7.834-0.854-10.613-2.231c-2.762-1.378-4.969-3.501-6.622-6.372
		C224.933,30.616,224.179,27.057,224.325,22.811z"/>
	<path clip-path="url(#SVGID_2_)" fill-rule="evenodd" clip-rule="evenodd" fill="#0A0C06" d="M286.276,34.561l1.926-7.346
		l17.655,4.116l-3.947,15.055c-3.957,1.412-7.343,2.216-10.16,2.411c-2.796,0.183-5.976-0.141-9.541-0.972
		c-4.388-1.023-7.782-2.573-10.182-4.649c-2.384-2.072-3.97-4.7-4.759-7.883c-0.771-3.179-0.679-6.599,0.281-10.261
		c1.011-3.854,2.722-7.008,5.131-9.462c2.414-2.471,5.42-4.07,9.02-4.798c2.805-0.557,6.325-0.341,10.562,0.648
		c4.086,0.952,7.045,2.017,8.877,3.194c1.851,1.181,3.243,2.673,4.18,4.476c0.958,1.791,1.474,3.905,1.549,6.343l-11.515-0.692
		c-0.104-1.439-0.61-2.638-1.519-3.6c-0.89-0.957-2.177-1.632-3.858-2.024c-2.505-0.585-4.725-0.216-6.659,1.106
		c-1.913,1.309-3.342,3.762-4.284,7.359c-1.002,3.822-0.971,6.726,0.097,8.713c1.084,1.99,2.971,3.3,5.662,3.927
		c1.277,0.298,2.543,0.406,3.795,0.323c1.254-0.083,2.74-0.375,4.459-0.877l0.872-3.325L286.276,34.561"/>
	<path clip-path="url(#SVGID_2_)" fill-rule="evenodd" clip-rule="evenodd" fill="#0A0C06" d="M307.393,41.903l10.38,4.025
		c-0.58,1.665-0.744,3.061-0.492,4.189c0.414,1.827,1.634,3.206,3.659,4.137c1.511,0.694,2.843,0.893,3.994,0.594
		c1.176-0.306,1.991-0.906,2.447-1.799c0.434-0.85,0.432-1.788-0.006-2.817s-1.921-2.492-4.452-4.391
		c-4.133-3.132-6.768-5.98-7.903-8.543c-1.149-2.57-1.071-5.136,0.235-7.699c0.859-1.684,2.175-3.038,3.947-4.063
		c1.796-1.032,3.931-1.504,6.405-1.415c2.498,0.081,5.529,0.941,9.097,2.581c4.378,2.012,7.312,4.326,8.805,6.943
		c1.516,2.609,1.624,5.713,0.328,9.31l-10.263-4.027c0.486-1.597,0.474-2.927-0.041-3.991c-0.499-1.058-1.497-1.93-2.992-2.617
		c-1.231-0.566-2.287-0.738-3.169-0.518c-0.874,0.205-1.493,0.665-1.858,1.38c-0.266,0.522-0.248,1.109,0.054,1.763
		c0.277,0.661,1.257,1.607,2.936,2.839c4.141,3.08,6.958,5.57,8.45,7.47c1.516,1.892,2.356,3.768,2.522,5.629
		c0.183,1.867-0.183,3.695-1.095,5.483c-1.071,2.101-2.667,3.758-4.787,4.973c-2.119,1.214-4.505,1.783-7.156,1.704
		c-2.646-0.094-5.627-0.903-8.944-2.428c-5.827-2.678-9.315-5.605-10.464-8.781C305.88,48.657,306.001,45.347,307.393,41.903"/>
	<polyline clip-path="url(#SVGID_2_)" fill-rule="evenodd" clip-rule="evenodd" fill="#0A0C06" points="355.568,39.195 
		381.164,56.666 376.401,62.986 360.377,52.048 356.832,56.753 371.696,66.899 367.146,72.936 352.283,62.79 347.885,68.626 
		364.373,79.88 359.321,86.584 333.262,68.796 355.568,39.195 	"/>
	<polyline clip-path="url(#SVGID_2_)" fill-rule="evenodd" clip-rule="evenodd" fill="#0A0C06" points="388.838,63.884 
		396.836,72.085 386.262,81.472 405.223,80.683 415.851,91.581 395.868,91.285 388.295,116.856 378.443,106.755 384.496,90.944 
		375.688,90.859 368.855,96.926 360.857,88.725 388.838,63.884 	"/>
	<polyline clip-path="url(#SVGID_2_)" fill-rule="evenodd" clip-rule="evenodd" fill="#0A0C06" points="418.634,95.025 
		437.045,124.205 428.972,128.866 422.795,119.075 398.177,133.29 392.12,123.69 416.739,109.476 410.562,99.686 418.634,95.025 	
		"/>
	<polyline clip-path="url(#SVGID_2_)" fill-rule="evenodd" clip-rule="evenodd" fill="#0A0C06" points="439.701,130.439 
		444.275,140.79 409.136,155.073 404.562,144.722 439.701,130.439 	"/>
	<path clip-path="url(#SVGID_2_)" fill-rule="evenodd" clip-rule="evenodd" fill="#0A0C06" d="M435.553,163.942
		c-3.798,0.611-6.413,1.719-7.843,3.323c-1.429,1.619-1.945,3.587-1.549,5.901c0.407,2.38,1.534,4.091,3.383,5.133
		c1.848,1.042,4.876,1.225,9.085,0.548c3.541-0.571,6.007-1.671,7.399-3.302c1.411-1.617,1.917-3.591,1.518-5.922
		c-0.381-2.233-1.518-3.892-3.409-4.978C442.247,163.56,439.385,163.325,435.553,163.942 M433.71,152.858
		c6.143-0.989,11.203-0.128,15.182,2.581c3.979,2.709,6.467,6.973,7.461,12.792c1.021,5.965,0.121,10.833-2.697,14.603
		c-2.802,3.767-7.23,6.138-13.287,7.113c-4.396,0.708-8.128,0.58-11.193-0.384c-3.045-0.95-5.583-2.635-7.614-5.055
		c-2.011-2.406-3.356-5.598-4.036-9.575c-0.691-4.042-0.589-7.5,0.309-10.374c0.9-2.859,2.672-5.346,5.316-7.463
		C425.793,154.979,429.314,153.566,433.71,152.858L433.71,152.858z"/>
	<polyline clip-path="url(#SVGID_2_)" fill-rule="evenodd" clip-rule="evenodd" fill="#0A0C06" points="460.666,191.892 
		461.75,202.324 442.182,218.036 463.165,215.936 464.26,226.465 426.328,230.262 425.234,219.733 444.655,204.109 423.827,206.194 
		422.735,195.689 460.666,191.892 	"/>
	<polyline clip-path="url(#SVGID_2_)" fill-rule="evenodd" clip-rule="evenodd" fill="#0A0C06" points="464.122,237.005 
		462.171,267.06 454.048,266.626 455.27,247.81 449.223,247.487 448.09,264.941 440.331,264.526 441.464,247.072 433.964,246.672 
		432.708,266.031 424.092,265.571 426.078,234.972 464.122,237.005 	"/>
	<polyline clip-path="url(#SVGID_2_)" fill-rule="evenodd" clip-rule="evenodd" fill="#0A0C06" points="460.271,276.609 
		457.448,286.762 433.385,294.967 453.766,300.012 450.917,310.261 414.077,301.142 416.925,290.893 440.818,282.723 
		420.588,277.716 423.429,267.49 460.271,276.609 	"/>
	<path clip-path="url(#SVGID_2_)" fill-rule="evenodd" clip-rule="evenodd" fill="#0A0C06" d="M106.083,402.589l5.693,8.609
		c-2.512,1.567-5.001,2.557-7.464,2.968c-2.463,0.41-4.876,0.263-7.238-0.44c-2.349-0.692-4.82-2.106-7.411-4.24
		c-3.144-2.591-5.306-5.121-6.485-7.596c-1.154-2.475-1.414-5.356-0.779-8.645c0.634-3.289,2.575-6.57,5.822-9.841
		c4.33-4.362,8.924-6.666,13.782-6.912c4.884-0.246,9.654,1.548,14.312,5.383c3.644,3.001,5.839,6.029,6.586,9.083
		c0.759,3.065,0.266,6.405-1.481,10.019l-9.481-4.9c0.52-1.03,0.814-1.856,0.88-2.478c0.119-1.034-0.017-2.018-0.408-2.948
		c-0.391-0.933-1.033-1.767-1.928-2.502c-2.026-1.67-4.316-2.204-6.869-1.607c-1.91,0.431-4.037,1.827-6.38,4.187
		c-2.902,2.925-4.408,5.332-4.517,7.226c-0.097,1.88,0.736,3.546,2.499,4.998c1.71,1.408,3.434,2.033,5.17,1.873
		C102.136,404.675,104.035,403.93,106.083,402.589"/>
	<polyline clip-path="url(#SVGID_2_)" fill-rule="evenodd" clip-rule="evenodd" fill="#0A0C06" points="129.594,392.249 
		139.895,397.949 132.809,408.573 144.064,414.801 151.15,404.176 161.495,409.9 141.247,440.262 130.901,434.538 139.092,422.257 
		127.837,416.029 119.646,428.311 109.346,422.612 129.594,392.249 	"/>
	<path clip-path="url(#SVGID_2_)" fill-rule="evenodd" clip-rule="evenodd" fill="#0A0C06" d="M172.918,436.352l0.613-13.349
		l-8.714,10.739L172.918,436.352 M172.488,444.362l-12.942-4.17l-3.927,4.954l-11.613-3.741l26.826-29.039l12.39,3.992l0.813,37.944
		l-11.888-3.831L172.488,444.362z"/>
	<polyline clip-path="url(#SVGID_2_)" fill-rule="evenodd" clip-rule="evenodd" fill="#0A0C06" points="195.344,419.397 
		207.163,421.542 201.418,447.803 219.865,451.151 217.988,459.73 187.722,454.237 195.344,419.397 	"/>
	<polyline clip-path="url(#SVGID_2_)" fill-rule="evenodd" clip-rule="evenodd" fill="#0A0C06" points="223.588,423.734 
		239.423,423.004 246.732,444.311 251.619,422.443 267.402,421.717 269.37,457.197 259.539,457.649 258.038,430.591 251.913,458 
		243.013,458.41 233.912,431.702 235.414,458.76 225.556,459.213 223.588,423.734 	"/>
	<polyline clip-path="url(#SVGID_2_)" fill-rule="evenodd" clip-rule="evenodd" fill="#0A0C06" points="271.968,420.565 
		302.752,411.665 305.271,418.894 285.999,424.466 287.875,429.848 305.752,424.679 308.158,431.585 290.281,436.754 
		292.608,443.429 312.438,437.695 315.109,445.364 283.768,454.425 271.968,420.565 	"/>
	<path clip-path="url(#SVGID_2_)" fill-rule="evenodd" clip-rule="evenodd" fill="#0A0C06" d="M326.115,416.97l4.46-2.219
		c0.481-0.24,1.331-0.847,2.546-1.819c0.624-0.477,0.997-1.085,1.118-1.826c0.137-0.749,0.001-1.465-0.407-2.145
		c-0.604-1.007-1.418-1.604-2.441-1.796c-1.022-0.19-2.5,0.195-4.43,1.156l-4.646,2.312L326.115,416.97 M326.614,440.8
		l-18.697-31.176l17.627-8.771c3.269-1.627,5.919-2.614,7.953-2.964c2.034-0.349,3.997-0.093,5.888,0.771
		c1.884,0.849,3.42,2.265,4.611,4.25c1.037,1.729,1.53,3.427,1.477,5.092c-0.061,1.65-0.565,3.217-1.515,4.702
		c-0.605,0.945-1.596,1.972-2.972,3.08c1.489-0.244,2.638-0.318,3.442-0.223c0.542,0.062,1.431,0.329,2.663,0.802
		c1.249,0.465,2.134,0.861,2.655,1.191l10.534,6.494l-11.954,5.948l-11.364-6.716c-1.456-0.877-2.574-1.361-3.355-1.45
		c-1.052-0.104-2.061,0.086-3.025,0.566l-0.934,0.464l7.589,12.653L326.614,440.8z"/>
	<path clip-path="url(#SVGID_2_)" fill-rule="evenodd" clip-rule="evenodd" fill="#0A0C06" d="M355.38,411.502l8.724-6.809
		c1.319,1.218,2.577,1.973,3.773,2.265c1.942,0.467,3.833,0.069,5.674-1.196c1.374-0.942,2.189-1.957,2.445-3.044
		c0.259-1.108,0.069-2.05-0.572-2.824c-0.607-0.734-1.507-1.149-2.695-1.243c-1.188-0.096-3.285,0.484-6.289,1.738
		c-4.937,2.033-8.896,2.952-11.88,2.755c-2.997-0.188-5.415-1.391-7.252-3.609c-1.206-1.457-1.883-3.147-2.029-5.069
		c-0.144-1.945,0.407-3.922,1.654-5.931c1.251-2.032,3.497-4.162,6.74-6.388c3.98-2.733,7.572-4.138,10.775-4.213
		c3.206-0.097,6.224,1.189,9.055,3.858l-8.671,6.712c-1.297-1.112-2.576-1.69-3.835-1.737c-1.246-0.055-2.548,0.385-3.908,1.318
		c-1.118,0.768-1.78,1.566-1.982,2.394c-0.215,0.814-0.065,1.531,0.446,2.151c0.374,0.451,0.944,0.697,1.71,0.737
		c0.764,0.062,2.127-0.328,4.095-1.172c4.889-2.063,8.593-3.29,11.11-3.685c2.521-0.416,4.709-0.279,6.566,0.407
		c1.872,0.678,3.448,1.791,4.729,3.339c1.505,1.819,2.341,3.875,2.507,6.169c0.165,2.293-0.411,4.521-1.732,6.683
		c-1.332,2.148-3.506,4.258-6.523,6.33c-5.296,3.637-9.732,5.227-13.31,4.769S358.019,414.181,355.38,411.502"/>
	<path clip-path="url(#SVGID_2_)" fill-rule="evenodd" clip-rule="evenodd" fill="#0A0C06" d="M426.612,339.366
		c5.634,8.227,3.528,19.475-4.698,25.107c-8.227,5.634-19.474,3.529-25.108-4.697c-5.632-8.227-3.527-19.476,4.698-25.108
		c8.052-5.513,18.979-3.657,24.759,4.205L426.612,339.366"/>
	<path clip-path="url(#SVGID_2_)" fill-rule="evenodd" clip-rule="evenodd" fill="#0A0C06" d="M74.15,340.089
		c5.634,8.228,3.529,19.476-4.698,25.108c-8.226,5.634-19.475,3.528-25.108-4.698c-5.633-8.226-3.528-19.475,4.698-25.108
		c8.052-5.513,18.979-3.656,24.759,4.205L74.15,340.089"/>
</g>
</svg>
